<svg xmlns="http://www.w3.org/2000/svg" viewBox="0 0 1560 583" font-family="sans-serif"><rect width="1560" height="583" fill="#f5f5f4"/><path d="M117.00 408.00L763.00 408.00L763.00 395.00L117.00 395.00Z" fill="#d6d3d1" stroke="none"/><path d="M117.00 345.00L763.00 345.00L763.00 332.00L117.00 332.00Z" fill="#d6d3d1" stroke="none"/><path d="M117.00 272.00L763.00 272.00L763.00 259.00L117.00 259.00Z" fill="#d6d3d1" stroke="none"/><path d="M117.00 209.00L763.00 209.00L763.00 196.00L117.00 196.00Z" fill="#d6d3d1" stroke="none"/><path d="M117.00 146.00L763.00 146.00L763.00 133.00L117.00 133.00Z" fill="#d6d3d1" stroke="none"/><path d="M270.00 259.00L284.00 259.00L284.00 133.00L270.00 133.00Z" fill="#d6d3d1" stroke="none"/><path d="M424.00 471.00L437.00 471.00L437.00 70.00L424.00 70.00Z" fill="#d6d3d1" stroke="none"/><path d="M587.00 471.00L600.00 471.00L600.00 70.00L587.00 70.00Z" fill="#d6d3d1" stroke="none"/><path d="M117.00 471.00L130.00 471.00L130.00 70.00L117.00 70.00Z" fill="#d6d3d1" stroke="none"/><path d="M750.00 471.00L780.00 471.00L780.00 70.00L750.00 70.00Z" fill="#a8a29e" stroke="none"/><path d="M780.00 209.00L1000.00 209.00L1000.00 196.00L780.00 196.00Z" fill="#d6d3d1" stroke="none"/><path d="M780.00 146.00L1000.00 146.00L1000.00 133.00L780.00 133.00Z" fill="#d6d3d1" stroke="none"/><path d="M883.00 209.00L896.00 209.00L896.00 70.00L883.00 70.00Z" fill="#d6d3d1" stroke="none"/><path d="M986.00 209.00L999.00 209.00L999.00 133.00L986.00 133.00Z" fill="#d6d3d1" stroke="none"/><path d="M1030.00 471.00L1050.00 471.00L1050.00 70.00L1030.00 70.00Z" fill="#a8a29e" stroke="none"/><path d="M1050.00 272.00L1439.00 272.00L1439.00 259.00L1050.00 259.00Z" fill="#d6d3d1" stroke="none"/><path d="M1050.00 209.00L1439.00 209.00L1439.00 196.00L1050.00 196.00Z" fill="#d6d3d1" stroke="none"/><path d="M1050.00 146.00L1439.00 146.00L1439.00 133.00L1050.00 133.00Z" fill="#d6d3d1" stroke="none"/><path d="M1170.00 272.00L1183.00 272.00L1183.00 133.00L1170.00 133.00Z" fill="#d6d3d1" stroke="none"/><path d="M1333.00 272.00L1346.00 272.00L1346.00 133.00L1333.00 133.00Z" fill="#d6d3d1" stroke="none"/><path d="M70.00 513.00L1490.00 513.00L1490.00 483.00L70.00 483.00Z" fill="#a8a29e" stroke="none"/><path d="M460.00 123.00L560.00 123.00L560.00 91.00L460.00 91.00Z" fill="#7dd3fc" stroke="none"/><path d="M1085.00 186.00L1155.00 186.00L1155.00 156.00L1085.00 156.00Z" fill="#7dd3fc" stroke="none"/><path d="M130.00 458.00L407.00 458.00L407.00 408.00L130.00 408.00Z" fill="#ffffff" stroke="#78716c" stroke-width="0.8"/><path d="M130.00 458.00L142.00 458.00L142.00 433.00L130.00 433.00Z" fill="#d9f99d" stroke="#57534e" stroke-width="0.25"/><path d="M142.00 458.00L153.50 458.00L153.50 433.00L142.00 433.00Z" fill="#d9f99d" stroke="#57534e" stroke-width="0.25"/><path d="M153.50 458.00L165.00 458.00L165.00 433.00L153.50 433.00Z" fill="#d9f99d" stroke="#57534e" stroke-width="0.25"/><path d="M165.00 458.00L176.50 458.00L176.50 433.00L165.00 433.00Z" fill="#d9f99d" stroke="#57534e" stroke-width="0.25"/><path d="M176.50 458.00L188.00 458.00L188.00 433.00L176.50 433.00Z" fill="#d9f99d" stroke="#57534e" stroke-width="0.25"/><path d="M188.00 458.00L199.50 458.00L199.50 433.00L188.00 433.00Z" fill="#d9f99d" stroke="#57534e" stroke-width="0.25"/><path d="M199.50 458.00L211.00 458.00L211.00 433.00L199.50 433.00Z" fill="#d9f99d" stroke="#57534e" stroke-width="0.25"/><path d="M211.00 458.00L222.50 458.00L222.50 433.00L211.00 433.00Z" fill="#d9f99d" stroke="#57534e" stroke-width="0.25"/><path d="M222.50 458.00L234.00 458.00L234.00 433.00L222.50 433.00Z" fill="#d9f99d" stroke="#57534e" stroke-width="0.25"/><path d="M234.00 458.00L245.50 458.00L245.50 433.00L234.00 433.00Z" fill="#d9f99d" stroke="#57534e" stroke-width="0.25"/><path d="M245.50 458.00L257.00 458.00L257.00 433.00L245.50 433.00Z" fill="#d9f99d" stroke="#57534e" stroke-width="0.25"/><path d="M257.00 458.00L268.50 458.00L268.50 433.00L257.00 433.00Z" fill="#d9f99d" stroke="#57534e" stroke-width="0.25"/><path d="M268.50 458.00L280.00 458.00L280.00 433.00L268.50 433.00Z" fill="#d9f99d" stroke="#57534e" stroke-width="0.25"/><path d="M280.00 458.00L291.50 458.00L291.50 433.00L280.00 433.00Z" fill="#d9f99d" stroke="#57534e" stroke-width="0.25"/><path d="M291.50 458.00L303.00 458.00L303.00 433.00L291.50 433.00Z" fill="#d9f99d" stroke="#57534e" stroke-width="0.25"/><path d="M303.00 458.00L314.50 458.00L314.50 433.00L303.00 433.00Z" fill="#d9f99d" stroke="#57534e" stroke-width="0.25"/><path d="M314.50 458.00L326.00 458.00L326.00 433.00L314.50 433.00Z" fill="#d9f99d" stroke="#57534e" stroke-width="0.25"/><path d="M326.00 458.00L337.50 458.00L337.50 433.00L326.00 433.00Z" fill="#d9f99d" stroke="#57534e" stroke-width="0.25"/><path d="M337.50 458.00L349.00 458.00L349.00 433.00L337.50 433.00Z" fill="#d9f99d" stroke="#57534e" stroke-width="0.25"/><path d="M349.00 458.00L360.50 458.00L360.50 433.00L349.00 433.00Z" fill="#d9f99d" stroke="#57534e" stroke-width="0.25"/><path d="M360.50 458.00L372.00 458.00L372.00 433.00L360.50 433.00Z" fill="#d9f99d" stroke="#57534e" stroke-width="0.25"/><path d="M372.00 458.00L383.50 458.00L383.50 433.00L372.00 433.00Z" fill="#d9f99d" stroke="#57534e" stroke-width="0.25"/><path d="M383.50 458.00L395.00 458.00L395.00 433.00L383.50 433.00Z" fill="#d9f99d" stroke="#57534e" stroke-width="0.25"/><path d="M395.00 458.00L407.00 458.00L407.00 433.00L395.00 433.00Z" fill="#d9f99d" stroke="#57534e" stroke-width="0.25"/><path d="M395.00 433.00L407.00 433.00L407.00 408.00L395.00 408.00Z" fill="#d9f99d" stroke="#57534e" stroke-width="0.25"/><path d="M383.50 433.00L395.00 433.00L395.00 408.00L383.50 408.00Z" fill="#d9f99d" stroke="#57534e" stroke-width="0.25"/><path d="M372.00 433.00L383.50 433.00L383.50 408.00L372.00 408.00Z" fill="#d9f99d" stroke="#57534e" stroke-width="0.25"/><path d="M360.50 433.00L372.00 433.00L372.00 408.00L360.50 408.00Z" fill="#d9f99d" stroke="#57534e" stroke-width="0.25"/><path d="M349.00 433.00L360.50 433.00L360.50 408.00L349.00 408.00Z" fill="#d9f99d" stroke="#57534e" stroke-width="0.25"/><path d="M337.50 433.00L349.00 433.00L349.00 408.00L337.50 408.00Z" fill="#d9f99d" stroke="#57534e" stroke-width="0.25"/><path d="M326.00 433.00L337.50 433.00L337.50 408.00L326.00 408.00Z" fill="#d9f99d" stroke="#57534e" stroke-width="0.25"/><path d="M314.50 433.00L326.00 433.00L326.00 408.00L314.50 408.00Z" fill="#d9f99d" stroke="#57534e" stroke-width="0.25"/><path d="M303.00 433.00L314.50 433.00L314.50 408.00L303.00 408.00Z" fill="#d9f99d" stroke="#57534e" stroke-width="0.25"/><path d="M291.50 433.00L303.00 433.00L303.00 408.00L291.50 408.00Z" fill="#d9f99d" stroke="#57534e" stroke-width="0.25"/><path d="M280.00 433.00L291.50 433.00L291.50 408.00L280.00 408.00Z" fill="#d9f99d" stroke="#57534e" stroke-width="0.25"/><path d="M268.50 433.00L280.00 433.00L280.00 408.00L268.50 408.00Z" fill="#d9f99d" stroke="#57534e" stroke-width="0.25"/><path d="M257.00 433.00L268.50 433.00L268.50 408.00L257.00 408.00Z" fill="#d9f99d" stroke="#57534e" stroke-width="0.25"/><path d="M245.50 433.00L257.00 433.00L257.00 408.00L245.50 408.00Z" fill="#d9f99d" stroke="#57534e" stroke-width="0.25"/><path d="M234.00 433.00L245.50 433.00L245.50 408.00L234.00 408.00Z" fill="#d9f99d" stroke="#57534e" stroke-width="0.25"/><path d="M222.50 433.00L234.00 433.00L234.00 408.00L222.50 408.00Z" fill="#d9f99d" stroke="#57534e" stroke-width="0.25"/><path d="M211.00 433.00L222.50 433.00L222.50 408.00L211.00 408.00Z" fill="#d9f99d" stroke="#57534e" stroke-width="0.25"/><path d="M199.50 433.00L211.00 433.00L211.00 408.00L199.50 408.00Z" fill="#d9f99d" stroke="#57534e" stroke-width="0.25"/><path d="M188.00 433.00L199.50 433.00L199.50 408.00L188.00 408.00Z" fill="#d9f99d" stroke="#57534e" stroke-width="0.25"/><path d="M176.50 433.00L188.00 433.00L188.00 408.00L176.50 408.00Z" fill="#d9f99d" stroke="#57534e" stroke-width="0.25"/><path d="M165.00 433.00L176.50 433.00L176.50 408.00L165.00 408.00Z" fill="#d9f99d" stroke="#57534e" stroke-width="0.25"/><path d="M153.50 433.00L165.00 433.00L165.00 408.00L153.50 408.00Z" fill="#d9f99d" stroke="#57534e" stroke-width="0.25"/><path d="M142.00 433.00L153.50 433.00L153.50 408.00L142.00 408.00Z" fill="#d9f99d" stroke="#57534e" stroke-width="0.25"/><path d="M130.00 433.00L142.00 433.00L142.00 408.00L130.00 408.00Z" fill="#d9f99d" stroke="#57534e" stroke-width="0.25"/><text x="268.5" y="433.0" text-anchor="middle" font-size="12" font-weight="bold" fill="#44403c">M-25</text><path d="M437.00 458.00L587.00 458.00L587.00 408.00L437.00 408.00Z" fill="#ffffff" stroke="#78716c" stroke-width="0.8"/><path d="M437.00 458.00L447.00 458.00L447.00 433.00L437.00 433.00Z" fill="#d9f99d" stroke="#57534e" stroke-width="0.25"/><path d="M447.00 458.00L457.00 458.00L457.00 433.00L447.00 433.00Z" fill="#d9f99d" stroke="#57534e" stroke-width="0.25"/><path d="M457.00 458.00L467.00 458.00L467.00 433.00L457.00 433.00Z" fill="#d9f99d" stroke="#57534e" stroke-width="0.25"/><path d="M467.00 458.00L477.00 458.00L477.00 433.00L467.00 433.00Z" fill="#d9f99d" stroke="#57534e" stroke-width="0.25"/><path d="M477.00 458.00L487.00 458.00L487.00 433.00L477.00 433.00Z" fill="#d9f99d" stroke="#57534e" stroke-width="0.25"/><path d="M487.00 458.00L497.00 458.00L497.00 433.00L487.00 433.00Z" fill="#d9f99d" stroke="#57534e" stroke-width="0.25"/><path d="M497.00 458.00L507.00 458.00L507.00 433.00L497.00 433.00Z" fill="#d9f99d" stroke="#57534e" stroke-width="0.25"/><path d="M507.00 458.00L517.00 458.00L517.00 433.00L507.00 433.00Z" fill="#d9f99d" stroke="#57534e" stroke-width="0.25"/><path d="M517.00 458.00L527.00 458.00L527.00 433.00L517.00 433.00Z" fill="#d9f99d" stroke="#57534e" stroke-width="0.25"/><path d="M527.00 458.00L537.00 458.00L537.00 433.00L527.00 433.00Z" fill="#d9f99d" stroke="#57534e" stroke-width="0.25"/><path d="M537.00 458.00L547.00 458.00L547.00 433.00L537.00 433.00Z" fill="#d9f99d" stroke="#57534e" stroke-width="0.25"/><path d="M547.00 458.00L557.00 458.00L557.00 433.00L547.00 433.00Z" fill="#d9f99d" stroke="#57534e" stroke-width="0.25"/><path d="M557.00 458.00L567.00 458.00L567.00 433.00L557.00 433.00Z" fill="#d9f99d" stroke="#57534e" stroke-width="0.25"/><path d="M567.00 458.00L577.00 458.00L577.00 433.00L567.00 433.00Z" fill="#d9f99d" stroke="#57534e" stroke-width="0.25"/><path d="M577.00 458.00L587.00 458.00L587.00 433.00L577.00 433.00Z" fill="#d9f99d" stroke="#57534e" stroke-width="0.25"/><path d="M577.00 433.00L587.00 433.00L587.00 408.00L577.00 408.00Z" fill="#d9f99d" stroke="#57534e" stroke-width="0.25"/><path d="M567.00 433.00L577.00 433.00L577.00 408.00L567.00 408.00Z" fill="#d9f99d" stroke="#57534e" stroke-width="0.25"/><path d="M557.00 433.00L567.00 433.00L567.00 408.00L557.00 408.00Z" fill="#d9f99d" stroke="#57534e" stroke-width="0.25"/><path d="M547.00 433.00L557.00 433.00L557.00 408.00L547.00 408.00Z" fill="#d9f99d" stroke="#57534e" stroke-width="0.25"/><path d="M537.00 433.00L547.00 433.00L547.00 408.00L537.00 408.00Z" fill="#d9f99d" stroke="#57534e" stroke-width="0.25"/><path d="M527.00 433.00L537.00 433.00L537.00 408.00L527.00 408.00Z" fill="#d9f99d" stroke="#57534e" stroke-width="0.25"/><path d="M517.00 433.00L527.00 433.00L527.00 408.00L517.00 408.00Z" fill="#d9f99d" stroke="#57534e" stroke-width="0.25"/><path d="M507.00 433.00L517.00 433.00L517.00 408.00L507.00 408.00Z" fill="#d9f99d" stroke="#57534e" stroke-width="0.25"/><path d="M497.00 433.00L507.00 433.00L507.00 408.00L497.00 408.00Z" fill="#d9f99d" stroke="#57534e" stroke-width="0.25"/><path d="M487.00 433.00L497.00 433.00L497.00 408.00L487.00 408.00Z" fill="#d9f99d" stroke="#57534e" stroke-width="0.25"/><path d="M477.00 433.00L487.00 433.00L487.00 408.00L477.00 408.00Z" fill="#d9f99d" stroke="#57534e" stroke-width="0.25"/><path d="M467.00 433.00L477.00 433.00L477.00 408.00L467.00 408.00Z" fill="#d9f99d" stroke="#57534e" stroke-width="0.25"/><path d="M457.00 433.00L467.00 433.00L467.00 408.00L457.00 408.00Z" fill="#d9f99d" stroke="#57534e" stroke-width="0.25"/><path d="M447.00 433.00L457.00 433.00L457.00 408.00L447.00 408.00Z" fill="#d9f99d" stroke="#57534e" stroke-width="0.25"/><path d="M437.00 433.00L447.00 433.00L447.00 408.00L437.00 408.00Z" fill="#d9f99d" stroke="#57534e" stroke-width="0.25"/><text x="512.0" y="433.0" text-anchor="middle" font-size="12" font-weight="bold" fill="#44403c">M-11</text><path d="M130.00 395.00L424.00 395.00L424.00 345.00L130.00 345.00Z" fill="#ffffff" stroke="#78716c" stroke-width="0.8"/><path d="M130.00 395.00L142.00 395.00L142.00 370.00L130.00 370.00Z" fill="#d9f99d" stroke="#57534e" stroke-width="0.25"/><path d="M142.00 395.00L152.00 395.00L152.00 370.00L142.00 370.00Z" fill="#d9f99d" stroke="#57534e" stroke-width="0.25"/><path d="M152.00 395.00L162.00 395.00L162.00 370.00L152.00 370.00Z" fill="#d9f99d" stroke="#57534e" stroke-width="0.25"/><path d="M162.00 395.00L172.00 395.00L172.00 370.00L162.00 370.00Z" fill="#d9f99d" stroke="#57534e" stroke-width="0.25"/><path d="M172.00 395.00L182.00 395.00L182.00 370.00L172.00 370.00Z" fill="#d9f99d" stroke="#57534e" stroke-width="0.25"/><path d="M182.00 395.00L192.00 395.00L192.00 370.00L182.00 370.00Z" fill="#d9f99d" stroke="#57534e" stroke-width="0.25"/><path d="M192.00 395.00L202.00 395.00L202.00 370.00L192.00 370.00Z" fill="#d9f99d" stroke="#57534e" stroke-width="0.25"/><path d="M202.00 395.00L212.00 395.00L212.00 370.00L202.00 370.00Z" fill="#d9f99d" stroke="#57534e" stroke-width="0.25"/><path d="M212.00 395.00L222.00 395.00L222.00 370.00L212.00 370.00Z" fill="#d9f99d" stroke="#57534e" stroke-width="0.25"/><path d="M222.00 395.00L232.00 395.00L232.00 370.00L222.00 370.00Z" fill="#d9f99d" stroke="#57534e" stroke-width="0.25"/><path d="M232.00 395.00L242.00 395.00L242.00 370.00L232.00 370.00Z" fill="#d9f99d" stroke="#57534e" stroke-width="0.25"/><path d="M242.00 395.00L252.00 395.00L252.00 370.00L242.00 370.00Z" fill="#d9f99d" stroke="#57534e" stroke-width="0.25"/><path d="M252.00 395.00L262.00 395.00L262.00 370.00L252.00 370.00Z" fill="#d9f99d" stroke="#57534e" stroke-width="0.25"/><path d="M262.00 395.00L272.00 395.00L272.00 370.00L262.00 370.00Z" fill="#d9f99d" stroke="#57534e" stroke-width="0.25"/><path d="M272.00 395.00L282.00 395.00L282.00 370.00L272.00 370.00Z" fill="#d9f99d" stroke="#57534e" stroke-width="0.25"/><path d="M282.00 395.00L292.00 395.00L292.00 370.00L282.00 370.00Z" fill="#d9f99d" stroke="#57534e" stroke-width="0.25"/><path d="M292.00 395.00L302.00 395.00L302.00 370.00L292.00 370.00Z" fill="#d9f99d" stroke="#57534e" stroke-width="0.25"/><path d="M302.00 395.00L312.00 395.00L312.00 370.00L302.00 370.00Z" fill="#d9f99d" stroke="#57534e" stroke-width="0.25"/><path d="M312.00 395.00L322.00 395.00L322.00 370.00L312.00 370.00Z" fill="#d9f99d" stroke="#57534e" stroke-width="0.25"/><path d="M322.00 395.00L332.00 395.00L332.00 370.00L322.00 370.00Z" fill="#d9f99d" stroke="#57534e" stroke-width="0.25"/><path d="M332.00 395.00L342.00 395.00L342.00 370.00L332.00 370.00Z" fill="#d9f99d" stroke="#57534e" stroke-width="0.25"/><path d="M342.00 395.00L352.00 395.00L352.00 370.00L342.00 370.00Z" fill="#d9f99d" stroke="#57534e" stroke-width="0.25"/><path d="M352.00 395.00L362.00 395.00L362.00 370.00L352.00 370.00Z" fill="#d9f99d" stroke="#57534e" stroke-width="0.25"/><path d="M362.00 395.00L372.00 395.00L372.00 370.00L362.00 370.00Z" fill="#d9f99d" stroke="#57534e" stroke-width="0.25"/><path d="M372.00 395.00L382.00 395.00L382.00 370.00L372.00 370.00Z" fill="#d9f99d" stroke="#57534e" stroke-width="0.25"/><path d="M382.00 395.00L392.00 395.00L392.00 370.00L382.00 370.00Z" fill="#d9f99d" stroke="#57534e" stroke-width="0.25"/><path d="M392.00 395.00L402.00 395.00L402.00 370.00L392.00 370.00Z" fill="#d9f99d" stroke="#57534e" stroke-width="0.25"/><path d="M402.00 395.00L412.00 395.00L412.00 370.00L402.00 370.00Z" fill="#d9f99d" stroke="#57534e" stroke-width="0.25"/><path d="M412.00 395.00L424.00 395.00L424.00 370.00L412.00 370.00Z" fill="#d9f99d" stroke="#57534e" stroke-width="0.25"/><path d="M412.00 370.00L424.00 370.00L424.00 345.00L412.00 345.00Z" fill="#d9f99d" stroke="#57534e" stroke-width="0.25"/><path d="M402.00 370.00L412.00 370.00L412.00 345.00L402.00 345.00Z" fill="#d9f99d" stroke="#57534e" stroke-width="0.25"/><path d="M392.00 370.00L402.00 370.00L402.00 345.00L392.00 345.00Z" fill="#d9f99d" stroke="#57534e" stroke-width="0.25"/><path d="M382.00 370.00L392.00 370.00L392.00 345.00L382.00 345.00Z" fill="#d9f99d" stroke="#57534e" stroke-width="0.25"/><path d="M372.00 370.00L382.00 370.00L382.00 345.00L372.00 345.00Z" fill="#d9f99d" stroke="#57534e" stroke-width="0.25"/><path d="M362.00 370.00L372.00 370.00L372.00 345.00L362.00 345.00Z" fill="#d9f99d" stroke="#57534e" stroke-width="0.25"/><path d="M352.00 370.00L362.00 370.00L362.00 345.00L352.00 345.00Z" fill="#d9f99d" stroke="#57534e" stroke-width="0.25"/><path d="M342.00 370.00L352.00 370.00L352.00 345.00L342.00 345.00Z" fill="#d9f99d" stroke="#57534e" stroke-width="0.25"/><path d="M332.00 370.00L342.00 370.00L342.00 345.00L332.00 345.00Z" fill="#d9f99d" stroke="#57534e" stroke-width="0.25"/><path d="M322.00 370.00L332.00 370.00L332.00 345.00L322.00 345.00Z" fill="#d9f99d" stroke="#57534e" stroke-width="0.25"/><path d="M312.00 370.00L322.00 370.00L322.00 345.00L312.00 345.00Z" fill="#d9f99d" stroke="#57534e" stroke-width="0.25"/><path d="M302.00 370.00L312.00 370.00L312.00 345.00L302.00 345.00Z" fill="#d9f99d" stroke="#57534e" stroke-width="0.25"/><path d="M292.00 370.00L302.00 370.00L302.00 345.00L292.00 345.00Z" fill="#d9f99d" stroke="#57534e" stroke-width="0.25"/><path d="M282.00 370.00L292.00 370.00L292.00 345.00L282.00 345.00Z" fill="#d9f99d" stroke="#57534e" stroke-width="0.25"/><path d="M272.00 370.00L282.00 370.00L282.00 345.00L272.00 345.00Z" fill="#d9f99d" stroke="#57534e" stroke-width="0.25"/><path d="M262.00 370.00L272.00 370.00L272.00 345.00L262.00 345.00Z" fill="#d9f99d" stroke="#57534e" stroke-width="0.25"/><path d="M252.00 370.00L262.00 370.00L262.00 345.00L252.00 345.00Z" fill="#d9f99d" stroke="#57534e" stroke-width="0.25"/><path d="M242.00 370.00L252.00 370.00L252.00 345.00L242.00 345.00Z" fill="#d9f99d" stroke="#57534e" stroke-width="0.25"/><path d="M232.00 370.00L242.00 370.00L242.00 345.00L232.00 345.00Z" fill="#d9f99d" stroke="#57534e" stroke-width="0.25"/><path d="M222.00 370.00L232.00 370.00L232.00 345.00L222.00 345.00Z" fill="#d9f99d" stroke="#57534e" stroke-width="0.25"/><path d="M212.00 370.00L222.00 370.00L222.00 345.00L212.00 345.00Z" fill="#d9f99d" stroke="#57534e" stroke-width="0.25"/><path d="M202.00 370.00L212.00 370.00L212.00 345.00L202.00 345.00Z" fill="#d9f99d" stroke="#57534e" stroke-width="0.25"/><path d="M192.00 370.00L202.00 370.00L202.00 345.00L192.00 345.00Z" fill="#d9f99d" stroke="#57534e" stroke-width="0.25"/><path d="M182.00 370.00L192.00 370.00L192.00 345.00L182.00 345.00Z" fill="#d9f99d" stroke="#57534e" stroke-width="0.25"/><path d="M172.00 370.00L182.00 370.00L182.00 345.00L172.00 345.00Z" fill="#d9f99d" stroke="#57534e" stroke-width="0.25"/><path d="M162.00 370.00L172.00 370.00L172.00 345.00L162.00 345.00Z" fill="#d9f99d" stroke="#57534e" stroke-width="0.25"/><path d="M152.00 370.00L162.00 370.00L162.00 345.00L152.00 345.00Z" fill="#d9f99d" stroke="#57534e" stroke-width="0.25"/><path d="M142.00 370.00L152.00 370.00L152.00 345.00L142.00 345.00Z" fill="#d9f99d" stroke="#57534e" stroke-width="0.25"/><path d="M130.00 370.00L142.00 370.00L142.00 345.00L130.00 345.00Z" fill="#d9f99d" stroke="#57534e" stroke-width="0.25"/><text x="277.0" y="370.0" text-anchor="middle" font-size="12" font-weight="bold" fill="#44403c">M-24</text><path d="M437.00 395.00L587.00 395.00L587.00 345.00L437.00 345.00Z" fill="#ffffff" stroke="#78716c" stroke-width="0.8"/><path d="M437.00 395.00L447.00 395.00L447.00 370.00L437.00 370.00Z" fill="#d9f99d" stroke="#57534e" stroke-width="0.25"/><path d="M447.00 395.00L457.00 395.00L457.00 370.00L447.00 370.00Z" fill="#d9f99d" stroke="#57534e" stroke-width="0.25"/><path d="M457.00 395.00L467.00 395.00L467.00 370.00L457.00 370.00Z" fill="#d9f99d" stroke="#57534e" stroke-width="0.25"/><path d="M467.00 395.00L477.00 395.00L477.00 370.00L467.00 370.00Z" fill="#d9f99d" stroke="#57534e" stroke-width="0.25"/><path d="M477.00 395.00L487.00 395.00L487.00 370.00L477.00 370.00Z" fill="#d9f99d" stroke="#57534e" stroke-width="0.25"/><path d="M487.00 395.00L497.00 395.00L497.00 370.00L487.00 370.00Z" fill="#d9f99d" stroke="#57534e" stroke-width="0.25"/><path d="M497.00 395.00L507.00 395.00L507.00 370.00L497.00 370.00Z" fill="#d9f99d" stroke="#57534e" stroke-width="0.25"/><path d="M507.00 395.00L517.00 395.00L517.00 370.00L507.00 370.00Z" fill="#d9f99d" stroke="#57534e" stroke-width="0.25"/><path d="M517.00 395.00L527.00 395.00L527.00 370.00L517.00 370.00Z" fill="#d9f99d" stroke="#57534e" stroke-width="0.25"/><path d="M527.00 395.00L537.00 395.00L537.00 370.00L527.00 370.00Z" fill="#d9f99d" stroke="#57534e" stroke-width="0.25"/><path d="M537.00 395.00L547.00 395.00L547.00 370.00L537.00 370.00Z" fill="#d9f99d" stroke="#57534e" stroke-width="0.25"/><path d="M547.00 395.00L557.00 395.00L557.00 370.00L547.00 370.00Z" fill="#d9f99d" stroke="#57534e" stroke-width="0.25"/><path d="M557.00 395.00L567.00 395.00L567.00 370.00L557.00 370.00Z" fill="#d9f99d" stroke="#57534e" stroke-width="0.25"/><path d="M567.00 395.00L577.00 395.00L577.00 370.00L567.00 370.00Z" fill="#d9f99d" stroke="#57534e" stroke-width="0.25"/><path d="M577.00 395.00L587.00 395.00L587.00 370.00L577.00 370.00Z" fill="#d9f99d" stroke="#57534e" stroke-width="0.25"/><path d="M577.00 370.00L587.00 370.00L587.00 345.00L577.00 345.00Z" fill="#d9f99d" stroke="#57534e" stroke-width="0.25"/><path d="M567.00 370.00L577.00 370.00L577.00 345.00L567.00 345.00Z" fill="#d9f99d" stroke="#57534e" stroke-width="0.25"/><path d="M557.00 370.00L567.00 370.00L567.00 345.00L557.00 345.00Z" fill="#d9f99d" stroke="#57534e" stroke-width="0.25"/><path d="M547.00 370.00L557.00 370.00L557.00 345.00L547.00 345.00Z" fill="#d9f99d" stroke="#57534e" stroke-width="0.25"/><path d="M537.00 370.00L547.00 370.00L547.00 345.00L537.00 345.00Z" fill="#d9f99d" stroke="#57534e" stroke-width="0.25"/><path d="M527.00 370.00L537.00 370.00L537.00 345.00L527.00 345.00Z" fill="#d9f99d" stroke="#57534e" stroke-width="0.25"/><path d="M517.00 370.00L527.00 370.00L527.00 345.00L517.00 345.00Z" fill="#d9f99d" stroke="#57534e" stroke-width="0.25"/><path d="M507.00 370.00L517.00 370.00L517.00 345.00L507.00 345.00Z" fill="#d9f99d" stroke="#57534e" stroke-width="0.25"/><path d="M497.00 370.00L507.00 370.00L507.00 345.00L497.00 345.00Z" fill="#d9f99d" stroke="#57534e" stroke-width="0.25"/><path d="M487.00 370.00L497.00 370.00L497.00 345.00L487.00 345.00Z" fill="#d9f99d" stroke="#57534e" stroke-width="0.25"/><path d="M477.00 370.00L487.00 370.00L487.00 345.00L477.00 345.00Z" fill="#d9f99d" stroke="#57534e" stroke-width="0.25"/><path d="M467.00 370.00L477.00 370.00L477.00 345.00L467.00 345.00Z" fill="#d9f99d" stroke="#57534e" stroke-width="0.25"/><path d="M457.00 370.00L467.00 370.00L467.00 345.00L457.00 345.00Z" fill="#d9f99d" stroke="#57534e" stroke-width="0.25"/><path d="M447.00 370.00L457.00 370.00L457.00 345.00L447.00 345.00Z" fill="#d9f99d" stroke="#57534e" stroke-width="0.25"/><path d="M437.00 370.00L447.00 370.00L447.00 345.00L437.00 345.00Z" fill="#d9f99d" stroke="#57534e" stroke-width="0.25"/><text x="512.0" y="370.0" text-anchor="middle" font-size="12" font-weight="bold" fill="#44403c">M-12</text><path d="M600.00 395.00L750.00 395.00L750.00 345.00L600.00 345.00Z" fill="#ffffff" stroke="#78716c" stroke-width="0.8"/><path d="M600.00 395.00L610.00 395.00L610.00 370.00L600.00 370.00Z" fill="#d9f99d" stroke="#57534e" stroke-width="0.25"/><path d="M610.00 395.00L620.00 395.00L620.00 370.00L610.00 370.00Z" fill="#d9f99d" stroke="#57534e" stroke-width="0.25"/><path d="M620.00 395.00L630.00 395.00L630.00 370.00L620.00 370.00Z" fill="#d9f99d" stroke="#57534e" stroke-width="0.25"/><path d="M630.00 395.00L640.00 395.00L640.00 370.00L630.00 370.00Z" fill="#d9f99d" stroke="#57534e" stroke-width="0.25"/><path d="M640.00 395.00L650.00 395.00L650.00 370.00L640.00 370.00Z" fill="#d9f99d" stroke="#57534e" stroke-width="0.25"/><path d="M650.00 395.00L660.00 395.00L660.00 370.00L650.00 370.00Z" fill="#d9f99d" stroke="#57534e" stroke-width="0.25"/><path d="M660.00 395.00L670.00 395.00L670.00 370.00L660.00 370.00Z" fill="#d9f99d" stroke="#57534e" stroke-width="0.25"/><path d="M670.00 395.00L680.00 395.00L680.00 370.00L670.00 370.00Z" fill="#d9f99d" stroke="#57534e" stroke-width="0.25"/><path d="M680.00 395.00L690.00 395.00L690.00 370.00L680.00 370.00Z" fill="#d9f99d" stroke="#57534e" stroke-width="0.25"/><path d="M690.00 395.00L700.00 395.00L700.00 370.00L690.00 370.00Z" fill="#d9f99d" stroke="#57534e" stroke-width="0.25"/><path d="M700.00 395.00L710.00 395.00L710.00 370.00L700.00 370.00Z" fill="#d9f99d" stroke="#57534e" stroke-width="0.25"/><path d="M710.00 395.00L720.00 395.00L720.00 370.00L710.00 370.00Z" fill="#d9f99d" stroke="#57534e" stroke-width="0.25"/><path d="M720.00 395.00L730.00 395.00L730.00 370.00L720.00 370.00Z" fill="#d9f99d" stroke="#57534e" stroke-width="0.25"/><path d="M730.00 395.00L740.00 395.00L740.00 370.00L730.00 370.00Z" fill="#d9f99d" stroke="#57534e" stroke-width="0.25"/><path d="M740.00 395.00L750.00 395.00L750.00 370.00L740.00 370.00Z" fill="#d9f99d" stroke="#57534e" stroke-width="0.25"/><path d="M740.00 370.00L750.00 370.00L750.00 345.00L740.00 345.00Z" fill="#d9f99d" stroke="#57534e" stroke-width="0.25"/><path d="M730.00 370.00L740.00 370.00L740.00 345.00L730.00 345.00Z" fill="#d9f99d" stroke="#57534e" stroke-width="0.25"/><path d="M720.00 370.00L730.00 370.00L730.00 345.00L720.00 345.00Z" fill="#d9f99d" stroke="#57534e" stroke-width="0.25"/><path d="M710.00 370.00L720.00 370.00L720.00 345.00L710.00 345.00Z" fill="#d9f99d" stroke="#57534e" stroke-width="0.25"/><path d="M700.00 370.00L710.00 370.00L710.00 345.00L700.00 345.00Z" fill="#d9f99d" stroke="#57534e" stroke-width="0.25"/><path d="M690.00 370.00L700.00 370.00L700.00 345.00L690.00 345.00Z" fill="#d9f99d" stroke="#57534e" stroke-width="0.25"/><path d="M680.00 370.00L690.00 370.00L690.00 345.00L680.00 345.00Z" fill="#d9f99d" stroke="#57534e" stroke-width="0.25"/><path d="M670.00 370.00L680.00 370.00L680.00 345.00L670.00 345.00Z" fill="#d9f99d" stroke="#57534e" stroke-width="0.25"/><path d="M660.00 370.00L670.00 370.00L670.00 345.00L660.00 345.00Z" fill="#d9f99d" stroke="#57534e" stroke-width="0.25"/><path d="M650.00 370.00L660.00 370.00L660.00 345.00L650.00 345.00Z" fill="#d9f99d" stroke="#57534e" stroke-width="0.25"/><path d="M640.00 370.00L650.00 370.00L650.00 345.00L640.00 345.00Z" fill="#d9f99d" stroke="#57534e" stroke-width="0.25"/><path d="M630.00 370.00L640.00 370.00L640.00 345.00L630.00 345.00Z" fill="#d9f99d" stroke="#57534e" stroke-width="0.25"/><path d="M620.00 370.00L630.00 370.00L630.00 345.00L620.00 345.00Z" fill="#d9f99d" stroke="#57534e" stroke-width="0.25"/><path d="M610.00 370.00L620.00 370.00L620.00 345.00L610.00 345.00Z" fill="#d9f99d" stroke="#57534e" stroke-width="0.25"/><path d="M600.00 370.00L610.00 370.00L610.00 345.00L600.00 345.00Z" fill="#d9f99d" stroke="#57534e" stroke-width="0.25"/><text x="675.0" y="370.0" text-anchor="middle" font-size="12" font-weight="bold" fill="#44403c">M-10</text><path d="M130.00 332.00L424.00 332.00L424.00 272.00L130.00 272.00Z" fill="#ffffff" stroke="#78716c" stroke-width="0.8"/><path d="M130.00 332.00L142.00 332.00L142.00 302.00L130.00 302.00Z" fill="#d9f99d" stroke="#57534e" stroke-width="0.25"/><path d="M142.00 332.00L152.00 332.00L152.00 302.00L142.00 302.00Z" fill="#d9f99d" stroke="#57534e" stroke-width="0.25"/><path d="M152.00 332.00L162.00 332.00L162.00 302.00L152.00 302.00Z" fill="#d9f99d" stroke="#57534e" stroke-width="0.25"/><path d="M162.00 332.00L172.00 332.00L172.00 302.00L162.00 302.00Z" fill="#d9f99d" stroke="#57534e" stroke-width="0.25"/><path d="M172.00 332.00L182.00 332.00L182.00 302.00L172.00 302.00Z" fill="#d9f99d" stroke="#57534e" stroke-width="0.25"/><path d="M182.00 332.00L192.00 332.00L192.00 302.00L182.00 302.00Z" fill="#d9f99d" stroke="#57534e" stroke-width="0.25"/><path d="M192.00 332.00L202.00 332.00L202.00 302.00L192.00 302.00Z" fill="#d9f99d" stroke="#57534e" stroke-width="0.25"/><path d="M202.00 332.00L212.00 332.00L212.00 302.00L202.00 302.00Z" fill="#d9f99d" stroke="#57534e" stroke-width="0.25"/><path d="M212.00 332.00L222.00 332.00L222.00 302.00L212.00 302.00Z" fill="#d9f99d" stroke="#57534e" stroke-width="0.25"/><path d="M222.00 332.00L232.00 332.00L232.00 302.00L222.00 302.00Z" fill="#d9f99d" stroke="#57534e" stroke-width="0.25"/><path d="M232.00 332.00L242.00 332.00L242.00 302.00L232.00 302.00Z" fill="#d9f99d" stroke="#57534e" stroke-width="0.25"/><path d="M242.00 332.00L252.00 332.00L252.00 302.00L242.00 302.00Z" fill="#d9f99d" stroke="#57534e" stroke-width="0.25"/><path d="M252.00 332.00L262.00 332.00L262.00 302.00L252.00 302.00Z" fill="#d9f99d" stroke="#57534e" stroke-width="0.25"/><path d="M262.00 332.00L272.00 332.00L272.00 302.00L262.00 302.00Z" fill="#d9f99d" stroke="#57534e" stroke-width="0.25"/><path d="M272.00 332.00L282.00 332.00L282.00 302.00L272.00 302.00Z" fill="#d9f99d" stroke="#57534e" stroke-width="0.25"/><path d="M282.00 332.00L292.00 332.00L292.00 302.00L282.00 302.00Z" fill="#d9f99d" stroke="#57534e" stroke-width="0.25"/><path d="M292.00 332.00L302.00 332.00L302.00 302.00L292.00 302.00Z" fill="#d9f99d" stroke="#57534e" stroke-width="0.25"/><path d="M302.00 332.00L312.00 332.00L312.00 302.00L302.00 302.00Z" fill="#d9f99d" stroke="#57534e" stroke-width="0.25"/><path d="M312.00 332.00L322.00 332.00L322.00 302.00L312.00 302.00Z" fill="#d9f99d" stroke="#57534e" stroke-width="0.25"/><path d="M322.00 332.00L332.00 332.00L332.00 302.00L322.00 302.00Z" fill="#d9f99d" stroke="#57534e" stroke-width="0.25"/><path d="M332.00 332.00L342.00 332.00L342.00 302.00L332.00 302.00Z" fill="#d9f99d" stroke="#57534e" stroke-width="0.25"/><path d="M342.00 332.00L352.00 332.00L352.00 302.00L342.00 302.00Z" fill="#d9f99d" stroke="#57534e" stroke-width="0.25"/><path d="M352.00 332.00L362.00 332.00L362.00 302.00L352.00 302.00Z" fill="#d9f99d" stroke="#57534e" stroke-width="0.25"/><path d="M362.00 332.00L372.00 332.00L372.00 302.00L362.00 302.00Z" fill="#d9f99d" stroke="#57534e" stroke-width="0.25"/><path d="M372.00 332.00L382.00 332.00L382.00 302.00L372.00 302.00Z" fill="#d9f99d" stroke="#57534e" stroke-width="0.25"/><path d="M382.00 332.00L392.00 332.00L392.00 302.00L382.00 302.00Z" fill="#d9f99d" stroke="#57534e" stroke-width="0.25"/><path d="M392.00 332.00L402.00 332.00L402.00 302.00L392.00 302.00Z" fill="#d9f99d" stroke="#57534e" stroke-width="0.25"/><path d="M402.00 332.00L412.00 332.00L412.00 302.00L402.00 302.00Z" fill="#d9f99d" stroke="#57534e" stroke-width="0.25"/><path d="M412.00 332.00L424.00 332.00L424.00 302.00L412.00 302.00Z" fill="#d9f99d" stroke="#57534e" stroke-width="0.25"/><path d="M412.00 302.00L424.00 302.00L424.00 272.00L412.00 272.00Z" fill="#d9f99d" stroke="#57534e" stroke-width="0.25"/><path d="M402.00 302.00L412.00 302.00L412.00 272.00L402.00 272.00Z" fill="#d9f99d" stroke="#57534e" stroke-width="0.25"/><path d="M392.00 302.00L402.00 302.00L402.00 272.00L392.00 272.00Z" fill="#d9f99d" stroke="#57534e" stroke-width="0.25"/><path d="M382.00 302.00L392.00 302.00L392.00 272.00L382.00 272.00Z" fill="#d9f99d" stroke="#57534e" stroke-width="0.25"/><path d="M372.00 302.00L382.00 302.00L382.00 272.00L372.00 272.00Z" fill="#d9f99d" stroke="#57534e" stroke-width="0.25"/><path d="M362.00 302.00L372.00 302.00L372.00 272.00L362.00 272.00Z" fill="#d9f99d" stroke="#57534e" stroke-width="0.25"/><path d="M352.00 302.00L362.00 302.00L362.00 272.00L352.00 272.00Z" fill="#d9f99d" stroke="#57534e" stroke-width="0.25"/><path d="M342.00 302.00L352.00 302.00L352.00 272.00L342.00 272.00Z" fill="#d9f99d" stroke="#57534e" stroke-width="0.25"/><path d="M332.00 302.00L342.00 302.00L342.00 272.00L332.00 272.00Z" fill="#d9f99d" stroke="#57534e" stroke-width="0.25"/><path d="M322.00 302.00L332.00 302.00L332.00 272.00L322.00 272.00Z" fill="#d9f99d" stroke="#57534e" stroke-width="0.25"/><path d="M312.00 302.00L322.00 302.00L322.00 272.00L312.00 272.00Z" fill="#d9f99d" stroke="#57534e" stroke-width="0.25"/><path d="M302.00 302.00L312.00 302.00L312.00 272.00L302.00 272.00Z" fill="#d9f99d" stroke="#57534e" stroke-width="0.25"/><path d="M292.00 302.00L302.00 302.00L302.00 272.00L292.00 272.00Z" fill="#d9f99d" stroke="#57534e" stroke-width="0.25"/><path d="M282.00 302.00L292.00 302.00L292.00 272.00L282.00 272.00Z" fill="#d9f99d" stroke="#57534e" stroke-width="0.25"/><path d="M272.00 302.00L282.00 302.00L282.00 272.00L272.00 272.00Z" fill="#d9f99d" stroke="#57534e" stroke-width="0.25"/><path d="M262.00 302.00L272.00 302.00L272.00 272.00L262.00 272.00Z" fill="#d9f99d" stroke="#57534e" stroke-width="0.25"/><path d="M252.00 302.00L262.00 302.00L262.00 272.00L252.00 272.00Z" fill="#d9f99d" stroke="#57534e" stroke-width="0.25"/><path d="M242.00 302.00L252.00 302.00L252.00 272.00L242.00 272.00Z" fill="#d9f99d" stroke="#57534e" stroke-width="0.25"/><path d="M232.00 302.00L242.00 302.00L242.00 272.00L232.00 272.00Z" fill="#d9f99d" stroke="#57534e" stroke-width="0.25"/><path d="M222.00 302.00L232.00 302.00L232.00 272.00L222.00 272.00Z" fill="#d9f99d" stroke="#57534e" stroke-width="0.25"/><path d="M212.00 302.00L222.00 302.00L222.00 272.00L212.00 272.00Z" fill="#d9f99d" stroke="#57534e" stroke-width="0.25"/><path d="M202.00 302.00L212.00 302.00L212.00 272.00L202.00 272.00Z" fill="#d9f99d" stroke="#57534e" stroke-width="0.25"/><path d="M192.00 302.00L202.00 302.00L202.00 272.00L192.00 272.00Z" fill="#d9f99d" stroke="#57534e" stroke-width="0.25"/><path d="M182.00 302.00L192.00 302.00L192.00 272.00L182.00 272.00Z" fill="#d9f99d" stroke="#57534e" stroke-width="0.25"/><path d="M172.00 302.00L182.00 302.00L182.00 272.00L172.00 272.00Z" fill="#d9f99d" stroke="#57534e" stroke-width="0.25"/><path d="M162.00 302.00L172.00 302.00L172.00 272.00L162.00 272.00Z" fill="#d9f99d" stroke="#57534e" stroke-width="0.25"/><path d="M152.00 302.00L162.00 302.00L162.00 272.00L152.00 272.00Z" fill="#d9f99d" stroke="#57534e" stroke-width="0.25"/><path d="M142.00 302.00L152.00 302.00L152.00 272.00L142.00 272.00Z" fill="#d9f99d" stroke="#57534e" stroke-width="0.25"/><path d="M130.00 302.00L142.00 302.00L142.00 272.00L130.00 272.00Z" fill="#d9f99d" stroke="#57534e" stroke-width="0.25"/><text x="277.0" y="302.0" text-anchor="middle" font-size="12" font-weight="bold" fill="#44403c">M-23</text><path d="M437.00 332.00L587.00 332.00L587.00 272.00L437.00 272.00Z" fill="#ffffff" stroke="#78716c" stroke-width="0.8"/><path d="M437.00 332.00L447.00 332.00L447.00 302.00L437.00 302.00Z" fill="#d9f99d" stroke="#57534e" stroke-width="0.25"/><path d="M447.00 332.00L457.00 332.00L457.00 302.00L447.00 302.00Z" fill="#d9f99d" stroke="#57534e" stroke-width="0.25"/><path d="M457.00 332.00L467.00 332.00L467.00 302.00L457.00 302.00Z" fill="#d9f99d" stroke="#57534e" stroke-width="0.25"/><path d="M467.00 332.00L477.00 332.00L477.00 302.00L467.00 302.00Z" fill="#d9f99d" stroke="#57534e" stroke-width="0.25"/><path d="M477.00 332.00L487.00 332.00L487.00 302.00L477.00 302.00Z" fill="#d9f99d" stroke="#57534e" stroke-width="0.25"/><path d="M487.00 332.00L497.00 332.00L497.00 302.00L487.00 302.00Z" fill="#d9f99d" stroke="#57534e" stroke-width="0.25"/><path d="M497.00 332.00L507.00 332.00L507.00 302.00L497.00 302.00Z" fill="#d9f99d" stroke="#57534e" stroke-width="0.25"/><path d="M507.00 332.00L517.00 332.00L517.00 302.00L507.00 302.00Z" fill="#d9f99d" stroke="#57534e" stroke-width="0.25"/><path d="M517.00 332.00L527.00 332.00L527.00 302.00L517.00 302.00Z" fill="#d9f99d" stroke="#57534e" stroke-width="0.25"/><path d="M527.00 332.00L537.00 332.00L537.00 302.00L527.00 302.00Z" fill="#d9f99d" stroke="#57534e" stroke-width="0.25"/><path d="M537.00 332.00L547.00 332.00L547.00 302.00L537.00 302.00Z" fill="#d9f99d" stroke="#57534e" stroke-width="0.25"/><path d="M547.00 332.00L557.00 332.00L557.00 302.00L547.00 302.00Z" fill="#d9f99d" stroke="#57534e" stroke-width="0.25"/><path d="M557.00 332.00L567.00 332.00L567.00 302.00L557.00 302.00Z" fill="#d9f99d" stroke="#57534e" stroke-width="0.25"/><path d="M567.00 332.00L577.00 332.00L577.00 302.00L567.00 302.00Z" fill="#d9f99d" stroke="#57534e" stroke-width="0.25"/><path d="M577.00 332.00L587.00 332.00L587.00 302.00L577.00 302.00Z" fill="#d9f99d" stroke="#57534e" stroke-width="0.25"/><path d="M577.00 302.00L587.00 302.00L587.00 272.00L577.00 272.00Z" fill="#d9f99d" stroke="#57534e" stroke-width="0.25"/><path d="M567.00 302.00L577.00 302.00L577.00 272.00L567.00 272.00Z" fill="#d9f99d" stroke="#57534e" stroke-width="0.25"/><path d="M557.00 302.00L567.00 302.00L567.00 272.00L557.00 272.00Z" fill="#d9f99d" stroke="#57534e" stroke-width="0.25"/><path d="M547.00 302.00L557.00 302.00L557.00 272.00L547.00 272.00Z" fill="#d9f99d" stroke="#57534e" stroke-width="0.25"/><path d="M537.00 302.00L547.00 302.00L547.00 272.00L537.00 272.00Z" fill="#d9f99d" stroke="#57534e" stroke-width="0.25"/><path d="M527.00 302.00L537.00 302.00L537.00 272.00L527.00 272.00Z" fill="#d9f99d" stroke="#57534e" stroke-width="0.25"/><path d="M517.00 302.00L527.00 302.00L527.00 272.00L517.00 272.00Z" fill="#d9f99d" stroke="#57534e" stroke-width="0.25"/><path d="M507.00 302.00L517.00 302.00L517.00 272.00L507.00 272.00Z" fill="#d9f99d" stroke="#57534e" stroke-width="0.25"/><path d="M497.00 302.00L507.00 302.00L507.00 272.00L497.00 272.00Z" fill="#d9f99d" stroke="#57534e" stroke-width="0.25"/><path d="M487.00 302.00L497.00 302.00L497.00 272.00L487.00 272.00Z" fill="#d9f99d" stroke="#57534e" stroke-width="0.25"/><path d="M477.00 302.00L487.00 302.00L487.00 272.00L477.00 272.00Z" fill="#d9f99d" stroke="#57534e" stroke-width="0.25"/><path d="M467.00 302.00L477.00 302.00L477.00 272.00L467.00 272.00Z" fill="#d9f99d" stroke="#57534e" stroke-width="0.25"/><path d="M457.00 302.00L467.00 302.00L467.00 272.00L457.00 272.00Z" fill="#d9f99d" stroke="#57534e" stroke-width="0.25"/><path d="M447.00 302.00L457.00 302.00L457.00 272.00L447.00 272.00Z" fill="#d9f99d" stroke="#57534e" stroke-width="0.25"/><path d="M437.00 302.00L447.00 302.00L447.00 272.00L437.00 272.00Z" fill="#d9f99d" stroke="#57534e" stroke-width="0.25"/><text x="512.0" y="302.0" text-anchor="middle" font-size="12" font-weight="bold" fill="#44403c">M-13</text><path d="M600.00 332.00L750.00 332.00L750.00 272.00L600.00 272.00Z" fill="#ffffff" stroke="#78716c" stroke-width="0.8"/><path d="M600.00 332.00L610.00 332.00L610.00 302.00L600.00 302.00Z" fill="#d9f99d" stroke="#57534e" stroke-width="0.25"/><path d="M610.00 332.00L620.00 332.00L620.00 302.00L610.00 302.00Z" fill="#d9f99d" stroke="#57534e" stroke-width="0.25"/><path d="M620.00 332.00L630.00 332.00L630.00 302.00L620.00 302.00Z" fill="#d9f99d" stroke="#57534e" stroke-width="0.25"/><path d="M630.00 332.00L640.00 332.00L640.00 302.00L630.00 302.00Z" fill="#d9f99d" stroke="#57534e" stroke-width="0.25"/><path d="M640.00 332.00L650.00 332.00L650.00 302.00L640.00 302.00Z" fill="#d9f99d" stroke="#57534e" stroke-width="0.25"/><path d="M650.00 332.00L660.00 332.00L660.00 302.00L650.00 302.00Z" fill="#d9f99d" stroke="#57534e" stroke-width="0.25"/><path d="M660.00 332.00L670.00 332.00L670.00 302.00L660.00 302.00Z" fill="#d9f99d" stroke="#57534e" stroke-width="0.25"/><path d="M670.00 332.00L680.00 332.00L680.00 302.00L670.00 302.00Z" fill="#d9f99d" stroke="#57534e" stroke-width="0.25"/><path d="M680.00 332.00L690.00 332.00L690.00 302.00L680.00 302.00Z" fill="#d9f99d" stroke="#57534e" stroke-width="0.25"/><path d="M690.00 332.00L700.00 332.00L700.00 302.00L690.00 302.00Z" fill="#d9f99d" stroke="#57534e" stroke-width="0.25"/><path d="M700.00 332.00L710.00 332.00L710.00 302.00L700.00 302.00Z" fill="#d9f99d" stroke="#57534e" stroke-width="0.25"/><path d="M710.00 332.00L720.00 332.00L720.00 302.00L710.00 302.00Z" fill="#d9f99d" stroke="#57534e" stroke-width="0.25"/><path d="M720.00 332.00L730.00 332.00L730.00 302.00L720.00 302.00Z" fill="#d9f99d" stroke="#57534e" stroke-width="0.25"/><path d="M730.00 332.00L740.00 332.00L740.00 302.00L730.00 302.00Z" fill="#d9f99d" stroke="#57534e" stroke-width="0.25"/><path d="M740.00 332.00L750.00 332.00L750.00 302.00L740.00 302.00Z" fill="#d9f99d" stroke="#57534e" stroke-width="0.25"/><path d="M740.00 302.00L750.00 302.00L750.00 272.00L740.00 272.00Z" fill="#d9f99d" stroke="#57534e" stroke-width="0.25"/><path d="M730.00 302.00L740.00 302.00L740.00 272.00L730.00 272.00Z" fill="#d9f99d" stroke="#57534e" stroke-width="0.25"/><path d="M720.00 302.00L730.00 302.00L730.00 272.00L720.00 272.00Z" fill="#d9f99d" stroke="#57534e" stroke-width="0.25"/><path d="M710.00 302.00L720.00 302.00L720.00 272.00L710.00 272.00Z" fill="#d9f99d" stroke="#57534e" stroke-width="0.25"/><path d="M700.00 302.00L710.00 302.00L710.00 272.00L700.00 272.00Z" fill="#d9f99d" stroke="#57534e" stroke-width="0.25"/><path d="M690.00 302.00L700.00 302.00L700.00 272.00L690.00 272.00Z" fill="#d9f99d" stroke="#57534e" stroke-width="0.25"/><path d="M680.00 302.00L690.00 302.00L690.00 272.00L680.00 272.00Z" fill="#d9f99d" stroke="#57534e" stroke-width="0.25"/><path d="M670.00 302.00L680.00 302.00L680.00 272.00L670.00 272.00Z" fill="#d9f99d" stroke="#57534e" stroke-width="0.25"/><path d="M660.00 302.00L670.00 302.00L670.00 272.00L660.00 272.00Z" fill="#d9f99d" stroke="#57534e" stroke-width="0.25"/><path d="M650.00 302.00L660.00 302.00L660.00 272.00L650.00 272.00Z" fill="#d9f99d" stroke="#57534e" stroke-width="0.25"/><path d="M640.00 302.00L650.00 302.00L650.00 272.00L640.00 272.00Z" fill="#d9f99d" stroke="#57534e" stroke-width="0.25"/><path d="M630.00 302.00L640.00 302.00L640.00 272.00L630.00 272.00Z" fill="#d9f99d" stroke="#57534e" stroke-width="0.25"/><path d="M620.00 302.00L630.00 302.00L630.00 272.00L620.00 272.00Z" fill="#d9f99d" stroke="#57534e" stroke-width="0.25"/><path d="M610.00 302.00L620.00 302.00L620.00 272.00L610.00 272.00Z" fill="#d9f99d" stroke="#57534e" stroke-width="0.25"/><path d="M600.00 302.00L610.00 302.00L610.00 272.00L600.00 272.00Z" fill="#d9f99d" stroke="#57534e" stroke-width="0.25"/><text x="675.0" y="302.0" text-anchor="middle" font-size="12" font-weight="bold" fill="#44403c">M-9</text><path d="M130.00 259.00L270.00 259.00L270.00 209.00L130.00 209.00Z" fill="#ffffff" stroke="#78716c" stroke-width="0.8"/><path d="M130.00 259.00L140.00 259.00L140.00 234.00L130.00 234.00Z" fill="#d9f99d" stroke="#57534e" stroke-width="0.25"/><path d="M140.00 259.00L150.00 259.00L150.00 234.00L140.00 234.00Z" fill="#d9f99d" stroke="#57534e" stroke-width="0.25"/><path d="M150.00 259.00L160.00 259.00L160.00 234.00L150.00 234.00Z" fill="#d9f99d" stroke="#57534e" stroke-width="0.25"/><path d="M160.00 259.00L170.00 259.00L170.00 234.00L160.00 234.00Z" fill="#d9f99d" stroke="#57534e" stroke-width="0.25"/><path d="M170.00 259.00L180.00 259.00L180.00 234.00L170.00 234.00Z" fill="#d9f99d" stroke="#57534e" stroke-width="0.25"/><path d="M180.00 259.00L190.00 259.00L190.00 234.00L180.00 234.00Z" fill="#d9f99d" stroke="#57534e" stroke-width="0.25"/><path d="M190.00 259.00L200.00 259.00L200.00 234.00L190.00 234.00Z" fill="#d9f99d" stroke="#57534e" stroke-width="0.25"/><path d="M200.00 259.00L210.00 259.00L210.00 234.00L200.00 234.00Z" fill="#d9f99d" stroke="#57534e" stroke-width="0.25"/><path d="M210.00 259.00L220.00 259.00L220.00 234.00L210.00 234.00Z" fill="#d9f99d" stroke="#57534e" stroke-width="0.25"/><path d="M220.00 259.00L230.00 259.00L230.00 234.00L220.00 234.00Z" fill="#d9f99d" stroke="#57534e" stroke-width="0.25"/><path d="M230.00 259.00L240.00 259.00L240.00 234.00L230.00 234.00Z" fill="#d9f99d" stroke="#57534e" stroke-width="0.25"/><path d="M240.00 259.00L250.00 259.00L250.00 234.00L240.00 234.00Z" fill="#d9f99d" stroke="#57534e" stroke-width="0.25"/><path d="M250.00 259.00L260.00 259.00L260.00 234.00L250.00 234.00Z" fill="#d9f99d" stroke="#57534e" stroke-width="0.25"/><path d="M260.00 259.00L270.00 259.00L270.00 234.00L260.00 234.00Z" fill="#d9f99d" stroke="#57534e" stroke-width="0.25"/><path d="M260.00 234.00L270.00 234.00L270.00 209.00L260.00 209.00Z" fill="#d9f99d" stroke="#57534e" stroke-width="0.25"/><path d="M250.00 234.00L260.00 234.00L260.00 209.00L250.00 209.00Z" fill="#d9f99d" stroke="#57534e" stroke-width="0.25"/><path d="M240.00 234.00L250.00 234.00L250.00 209.00L240.00 209.00Z" fill="#d9f99d" stroke="#57534e" stroke-width="0.25"/><path d="M230.00 234.00L240.00 234.00L240.00 209.00L230.00 209.00Z" fill="#d9f99d" stroke="#57534e" stroke-width="0.25"/><path d="M220.00 234.00L230.00 234.00L230.00 209.00L220.00 209.00Z" fill="#d9f99d" stroke="#57534e" stroke-width="0.25"/><path d="M210.00 234.00L220.00 234.00L220.00 209.00L210.00 209.00Z" fill="#d9f99d" stroke="#57534e" stroke-width="0.25"/><path d="M200.00 234.00L210.00 234.00L210.00 209.00L200.00 209.00Z" fill="#d9f99d" stroke="#57534e" stroke-width="0.25"/><path d="M190.00 234.00L200.00 234.00L200.00 209.00L190.00 209.00Z" fill="#d9f99d" stroke="#57534e" stroke-width="0.25"/><path d="M180.00 234.00L190.00 234.00L190.00 209.00L180.00 209.00Z" fill="#d9f99d" stroke="#57534e" stroke-width="0.25"/><path d="M170.00 234.00L180.00 234.00L180.00 209.00L170.00 209.00Z" fill="#d9f99d" stroke="#57534e" stroke-width="0.25"/><path d="M160.00 234.00L170.00 234.00L170.00 209.00L160.00 209.00Z" fill="#d9f99d" stroke="#57534e" stroke-width="0.25"/><path d="M150.00 234.00L160.00 234.00L160.00 209.00L150.00 209.00Z" fill="#d9f99d" stroke="#57534e" stroke-width="0.25"/><path d="M140.00 234.00L150.00 234.00L150.00 209.00L140.00 209.00Z" fill="#d9f99d" stroke="#57534e" stroke-width="0.25"/><path d="M130.00 234.00L140.00 234.00L140.00 209.00L130.00 209.00Z" fill="#d9f99d" stroke="#57534e" stroke-width="0.25"/><text x="200.0" y="234.0" text-anchor="middle" font-size="12" font-weight="bold" fill="#44403c">M-21</text><path d="M284.00 259.00L424.00 259.00L424.00 209.00L284.00 209.00Z" fill="#ffffff" stroke="#78716c" stroke-width="0.8"/><path d="M284.00 259.00L294.00 259.00L294.00 234.00L284.00 234.00Z" fill="#d9f99d" stroke="#57534e" stroke-width="0.25"/><path d="M294.00 259.00L304.00 259.00L304.00 234.00L294.00 234.00Z" fill="#d9f99d" stroke="#57534e" stroke-width="0.25"/><path d="M304.00 259.00L314.00 259.00L314.00 234.00L304.00 234.00Z" fill="#d9f99d" stroke="#57534e" stroke-width="0.25"/><path d="M314.00 259.00L324.00 259.00L324.00 234.00L314.00 234.00Z" fill="#d9f99d" stroke="#57534e" stroke-width="0.25"/><path d="M324.00 259.00L334.00 259.00L334.00 234.00L324.00 234.00Z" fill="#d9f99d" stroke="#57534e" stroke-width="0.25"/><path d="M334.00 259.00L344.00 259.00L344.00 234.00L334.00 234.00Z" fill="#d9f99d" stroke="#57534e" stroke-width="0.25"/><path d="M344.00 259.00L354.00 259.00L354.00 234.00L344.00 234.00Z" fill="#d9f99d" stroke="#57534e" stroke-width="0.25"/><path d="M354.00 259.00L364.00 259.00L364.00 234.00L354.00 234.00Z" fill="#d9f99d" stroke="#57534e" stroke-width="0.25"/><path d="M364.00 259.00L374.00 259.00L374.00 234.00L364.00 234.00Z" fill="#d9f99d" stroke="#57534e" stroke-width="0.25"/><path d="M374.00 259.00L384.00 259.00L384.00 234.00L374.00 234.00Z" fill="#d9f99d" stroke="#57534e" stroke-width="0.25"/><path d="M384.00 259.00L394.00 259.00L394.00 234.00L384.00 234.00Z" fill="#d9f99d" stroke="#57534e" stroke-width="0.25"/><path d="M394.00 259.00L404.00 259.00L404.00 234.00L394.00 234.00Z" fill="#d9f99d" stroke="#57534e" stroke-width="0.25"/><path d="M404.00 259.00L414.00 259.00L414.00 234.00L404.00 234.00Z" fill="#d9f99d" stroke="#57534e" stroke-width="0.25"/><path d="M414.00 259.00L424.00 259.00L424.00 234.00L414.00 234.00Z" fill="#d9f99d" stroke="#57534e" stroke-width="0.25"/><path d="M414.00 234.00L424.00 234.00L424.00 209.00L414.00 209.00Z" fill="#d9f99d" stroke="#57534e" stroke-width="0.25"/><path d="M404.00 234.00L414.00 234.00L414.00 209.00L404.00 209.00Z" fill="#d9f99d" stroke="#57534e" stroke-width="0.25"/><path d="M394.00 234.00L404.00 234.00L404.00 209.00L394.00 209.00Z" fill="#d9f99d" stroke="#57534e" stroke-width="0.25"/><path d="M384.00 234.00L394.00 234.00L394.00 209.00L384.00 209.00Z" fill="#d9f99d" stroke="#57534e" stroke-width="0.25"/><path d="M374.00 234.00L384.00 234.00L384.00 209.00L374.00 209.00Z" fill="#d9f99d" stroke="#57534e" stroke-width="0.25"/><path d="M364.00 234.00L374.00 234.00L374.00 209.00L364.00 209.00Z" fill="#d9f99d" stroke="#57534e" stroke-width="0.25"/><path d="M354.00 234.00L364.00 234.00L364.00 209.00L354.00 209.00Z" fill="#d9f99d" stroke="#57534e" stroke-width="0.25"/><path d="M344.00 234.00L354.00 234.00L354.00 209.00L344.00 209.00Z" fill="#d9f99d" stroke="#57534e" stroke-width="0.25"/><path d="M334.00 234.00L344.00 234.00L344.00 209.00L334.00 209.00Z" fill="#d9f99d" stroke="#57534e" stroke-width="0.25"/><path d="M324.00 234.00L334.00 234.00L334.00 209.00L324.00 209.00Z" fill="#d9f99d" stroke="#57534e" stroke-width="0.25"/><path d="M314.00 234.00L324.00 234.00L324.00 209.00L314.00 209.00Z" fill="#d9f99d" stroke="#57534e" stroke-width="0.25"/><path d="M304.00 234.00L314.00 234.00L314.00 209.00L304.00 209.00Z" fill="#d9f99d" stroke="#57534e" stroke-width="0.25"/><path d="M294.00 234.00L304.00 234.00L304.00 209.00L294.00 209.00Z" fill="#d9f99d" stroke="#57534e" stroke-width="0.25"/><path d="M284.00 234.00L294.00 234.00L294.00 209.00L284.00 209.00Z" fill="#d9f99d" stroke="#57534e" stroke-width="0.25"/><text x="354.0" y="234.0" text-anchor="middle" font-size="12" font-weight="bold" fill="#44403c">M-22</text><path d="M437.00 259.00L587.00 259.00L587.00 209.00L437.00 209.00Z" fill="#ffffff" stroke="#78716c" stroke-width="0.8"/><path d="M437.00 259.00L447.00 259.00L447.00 234.00L437.00 234.00Z" fill="#d9f99d" stroke="#57534e" stroke-width="0.25"/><path d="M447.00 259.00L457.00 259.00L457.00 234.00L447.00 234.00Z" fill="#d9f99d" stroke="#57534e" stroke-width="0.25"/><path d="M457.00 259.00L467.00 259.00L467.00 234.00L457.00 234.00Z" fill="#d9f99d" stroke="#57534e" stroke-width="0.25"/><path d="M467.00 259.00L477.00 259.00L477.00 234.00L467.00 234.00Z" fill="#d9f99d" stroke="#57534e" stroke-width="0.25"/><path d="M477.00 259.00L487.00 259.00L487.00 234.00L477.00 234.00Z" fill="#d9f99d" stroke="#57534e" stroke-width="0.25"/><path d="M487.00 259.00L497.00 259.00L497.00 234.00L487.00 234.00Z" fill="#d9f99d" stroke="#57534e" stroke-width="0.25"/><path d="M497.00 259.00L507.00 259.00L507.00 234.00L497.00 234.00Z" fill="#d9f99d" stroke="#57534e" stroke-width="0.25"/><path d="M507.00 259.00L517.00 259.00L517.00 234.00L507.00 234.00Z" fill="#d9f99d" stroke="#57534e" stroke-width="0.25"/><path d="M517.00 259.00L527.00 259.00L527.00 234.00L517.00 234.00Z" fill="#d9f99d" stroke="#57534e" stroke-width="0.25"/><path d="M527.00 259.00L537.00 259.00L537.00 234.00L527.00 234.00Z" fill="#d9f99d" stroke="#57534e" stroke-width="0.25"/><path d="M537.00 259.00L547.00 259.00L547.00 234.00L537.00 234.00Z" fill="#d9f99d" stroke="#57534e" stroke-width="0.25"/><path d="M547.00 259.00L557.00 259.00L557.00 234.00L547.00 234.00Z" fill="#d9f99d" stroke="#57534e" stroke-width="0.25"/><path d="M557.00 259.00L567.00 259.00L567.00 234.00L557.00 234.00Z" fill="#d9f99d" stroke="#57534e" stroke-width="0.25"/><path d="M567.00 259.00L577.00 259.00L577.00 234.00L567.00 234.00Z" fill="#d9f99d" stroke="#57534e" stroke-width="0.25"/><path d="M577.00 259.00L587.00 259.00L587.00 234.00L577.00 234.00Z" fill="#d9f99d" stroke="#57534e" stroke-width="0.25"/><path d="M577.00 234.00L587.00 234.00L587.00 209.00L577.00 209.00Z" fill="#d9f99d" stroke="#57534e" stroke-width="0.25"/><path d="M567.00 234.00L577.00 234.00L577.00 209.00L567.00 209.00Z" fill="#d9f99d" stroke="#57534e" stroke-width="0.25"/><path d="M557.00 234.00L567.00 234.00L567.00 209.00L557.00 209.00Z" fill="#d9f99d" stroke="#57534e" stroke-width="0.25"/><path d="M547.00 234.00L557.00 234.00L557.00 209.00L547.00 209.00Z" fill="#d9f99d" stroke="#57534e" stroke-width="0.25"/><path d="M537.00 234.00L547.00 234.00L547.00 209.00L537.00 209.00Z" fill="#d9f99d" stroke="#57534e" stroke-width="0.25"/><path d="M527.00 234.00L537.00 234.00L537.00 209.00L527.00 209.00Z" fill="#d9f99d" stroke="#57534e" stroke-width="0.25"/><path d="M517.00 234.00L527.00 234.00L527.00 209.00L517.00 209.00Z" fill="#d9f99d" stroke="#57534e" stroke-width="0.25"/><path d="M507.00 234.00L517.00 234.00L517.00 209.00L507.00 209.00Z" fill="#d9f99d" stroke="#57534e" stroke-width="0.25"/><path d="M497.00 234.00L507.00 234.00L507.00 209.00L497.00 209.00Z" fill="#d9f99d" stroke="#57534e" stroke-width="0.25"/><path d="M487.00 234.00L497.00 234.00L497.00 209.00L487.00 209.00Z" fill="#d9f99d" stroke="#57534e" stroke-width="0.25"/><path d="M477.00 234.00L487.00 234.00L487.00 209.00L477.00 209.00Z" fill="#d9f99d" stroke="#57534e" stroke-width="0.25"/><path d="M467.00 234.00L477.00 234.00L477.00 209.00L467.00 209.00Z" fill="#d9f99d" stroke="#57534e" stroke-width="0.25"/><path d="M457.00 234.00L467.00 234.00L467.00 209.00L457.00 209.00Z" fill="#d9f99d" stroke="#57534e" stroke-width="0.25"/><path d="M447.00 234.00L457.00 234.00L457.00 209.00L447.00 209.00Z" fill="#d9f99d" stroke="#57534e" stroke-width="0.25"/><path d="M437.00 234.00L447.00 234.00L447.00 209.00L437.00 209.00Z" fill="#d9f99d" stroke="#57534e" stroke-width="0.25"/><text x="512.0" y="234.0" text-anchor="middle" font-size="12" font-weight="bold" fill="#44403c">M-14</text><path d="M600.00 259.00L750.00 259.00L750.00 209.00L600.00 209.00Z" fill="#ffffff" stroke="#78716c" stroke-width="0.8"/><path d="M600.00 259.00L610.00 259.00L610.00 234.00L600.00 234.00Z" fill="#d9f99d" stroke="#57534e" stroke-width="0.25"/><path d="M610.00 259.00L620.00 259.00L620.00 234.00L610.00 234.00Z" fill="#d9f99d" stroke="#57534e" stroke-width="0.25"/><path d="M620.00 259.00L630.00 259.00L630.00 234.00L620.00 234.00Z" fill="#d9f99d" stroke="#57534e" stroke-width="0.25"/><path d="M630.00 259.00L640.00 259.00L640.00 234.00L630.00 234.00Z" fill="#d9f99d" stroke="#57534e" stroke-width="0.25"/><path d="M640.00 259.00L650.00 259.00L650.00 234.00L640.00 234.00Z" fill="#d9f99d" stroke="#57534e" stroke-width="0.25"/><path d="M650.00 259.00L660.00 259.00L660.00 234.00L650.00 234.00Z" fill="#d9f99d" stroke="#57534e" stroke-width="0.25"/><path d="M660.00 259.00L670.00 259.00L670.00 234.00L660.00 234.00Z" fill="#d9f99d" stroke="#57534e" stroke-width="0.25"/><path d="M670.00 259.00L680.00 259.00L680.00 234.00L670.00 234.00Z" fill="#d9f99d" stroke="#57534e" stroke-width="0.25"/><path d="M680.00 259.00L690.00 259.00L690.00 234.00L680.00 234.00Z" fill="#d9f99d" stroke="#57534e" stroke-width="0.25"/><path d="M690.00 259.00L700.00 259.00L700.00 234.00L690.00 234.00Z" fill="#d9f99d" stroke="#57534e" stroke-width="0.25"/><path d="M700.00 259.00L710.00 259.00L710.00 234.00L700.00 234.00Z" fill="#d9f99d" stroke="#57534e" stroke-width="0.25"/><path d="M710.00 259.00L720.00 259.00L720.00 234.00L710.00 234.00Z" fill="#d9f99d" stroke="#57534e" stroke-width="0.25"/><path d="M720.00 259.00L730.00 259.00L730.00 234.00L720.00 234.00Z" fill="#d9f99d" stroke="#57534e" stroke-width="0.25"/><path d="M730.00 259.00L740.00 259.00L740.00 234.00L730.00 234.00Z" fill="#d9f99d" stroke="#57534e" stroke-width="0.25"/><path d="M740.00 259.00L750.00 259.00L750.00 234.00L740.00 234.00Z" fill="#d9f99d" stroke="#57534e" stroke-width="0.25"/><path d="M740.00 234.00L750.00 234.00L750.00 209.00L740.00 209.00Z" fill="#d9f99d" stroke="#57534e" stroke-width="0.25"/><path d="M730.00 234.00L740.00 234.00L740.00 209.00L730.00 209.00Z" fill="#d9f99d" stroke="#57534e" stroke-width="0.25"/><path d="M720.00 234.00L730.00 234.00L730.00 209.00L720.00 209.00Z" fill="#d9f99d" stroke="#57534e" stroke-width="0.25"/><path d="M710.00 234.00L720.00 234.00L720.00 209.00L710.00 209.00Z" fill="#d9f99d" stroke="#57534e" stroke-width="0.25"/><path d="M700.00 234.00L710.00 234.00L710.00 209.00L700.00 209.00Z" fill="#d9f99d" stroke="#57534e" stroke-width="0.25"/><path d="M690.00 234.00L700.00 234.00L700.00 209.00L690.00 209.00Z" fill="#d9f99d" stroke="#57534e" stroke-width="0.25"/><path d="M680.00 234.00L690.00 234.00L690.00 209.00L680.00 209.00Z" fill="#d9f99d" stroke="#57534e" stroke-width="0.25"/><path d="M670.00 234.00L680.00 234.00L680.00 209.00L670.00 209.00Z" fill="#d9f99d" stroke="#57534e" stroke-width="0.25"/><path d="M660.00 234.00L670.00 234.00L670.00 209.00L660.00 209.00Z" fill="#d9f99d" stroke="#57534e" stroke-width="0.25"/><path d="M650.00 234.00L660.00 234.00L660.00 209.00L650.00 209.00Z" fill="#d9f99d" stroke="#57534e" stroke-width="0.25"/><path d="M640.00 234.00L650.00 234.00L650.00 209.00L640.00 209.00Z" fill="#d9f99d" stroke="#57534e" stroke-width="0.25"/><path d="M630.00 234.00L640.00 234.00L640.00 209.00L630.00 209.00Z" fill="#d9f99d" stroke="#57534e" stroke-width="0.25"/><path d="M620.00 234.00L630.00 234.00L630.00 209.00L620.00 209.00Z" fill="#d9f99d" stroke="#57534e" stroke-width="0.25"/><path d="M610.00 234.00L620.00 234.00L620.00 209.00L610.00 209.00Z" fill="#d9f99d" stroke="#57534e" stroke-width="0.25"/><path d="M600.00 234.00L610.00 234.00L610.00 209.00L600.00 209.00Z" fill="#d9f99d" stroke="#57534e" stroke-width="0.25"/><text x="675.0" y="234.0" text-anchor="middle" font-size="12" font-weight="bold" fill="#44403c">M-8</text><path d="M130.00 196.00L270.00 196.00L270.00 146.00L130.00 146.00Z" fill="#ffffff" stroke="#78716c" stroke-width="0.8"/><path d="M130.00 196.00L140.00 196.00L140.00 171.00L130.00 171.00Z" fill="#d9f99d" stroke="#57534e" stroke-width="0.25"/><path d="M140.00 196.00L150.00 196.00L150.00 171.00L140.00 171.00Z" fill="#d9f99d" stroke="#57534e" stroke-width="0.25"/><path d="M150.00 196.00L160.00 196.00L160.00 171.00L150.00 171.00Z" fill="#d9f99d" stroke="#57534e" stroke-width="0.25"/><path d="M160.00 196.00L170.00 196.00L170.00 171.00L160.00 171.00Z" fill="#d9f99d" stroke="#57534e" stroke-width="0.25"/><path d="M170.00 196.00L180.00 196.00L180.00 171.00L170.00 171.00Z" fill="#d9f99d" stroke="#57534e" stroke-width="0.25"/><path d="M180.00 196.00L190.00 196.00L190.00 171.00L180.00 171.00Z" fill="#d9f99d" stroke="#57534e" stroke-width="0.25"/><path d="M190.00 196.00L200.00 196.00L200.00 171.00L190.00 171.00Z" fill="#d9f99d" stroke="#57534e" stroke-width="0.25"/><path d="M200.00 196.00L210.00 196.00L210.00 171.00L200.00 171.00Z" fill="#d9f99d" stroke="#57534e" stroke-width="0.25"/><path d="M210.00 196.00L220.00 196.00L220.00 171.00L210.00 171.00Z" fill="#d9f99d" stroke="#57534e" stroke-width="0.25"/><path d="M220.00 196.00L230.00 196.00L230.00 171.00L220.00 171.00Z" fill="#d9f99d" stroke="#57534e" stroke-width="0.25"/><path d="M230.00 196.00L240.00 196.00L240.00 171.00L230.00 171.00Z" fill="#d9f99d" stroke="#57534e" stroke-width="0.25"/><path d="M240.00 196.00L250.00 196.00L250.00 171.00L240.00 171.00Z" fill="#d9f99d" stroke="#57534e" stroke-width="0.25"/><path d="M250.00 196.00L260.00 196.00L260.00 171.00L250.00 171.00Z" fill="#d9f99d" stroke="#57534e" stroke-width="0.25"/><path d="M260.00 196.00L270.00 196.00L270.00 171.00L260.00 171.00Z" fill="#d9f99d" stroke="#57534e" stroke-width="0.25"/><path d="M260.00 171.00L270.00 171.00L270.00 146.00L260.00 146.00Z" fill="#d9f99d" stroke="#57534e" stroke-width="0.25"/><path d="M250.00 171.00L260.00 171.00L260.00 146.00L250.00 146.00Z" fill="#d9f99d" stroke="#57534e" stroke-width="0.25"/><path d="M240.00 171.00L250.00 171.00L250.00 146.00L240.00 146.00Z" fill="#d9f99d" stroke="#57534e" stroke-width="0.25"/><path d="M230.00 171.00L240.00 171.00L240.00 146.00L230.00 146.00Z" fill="#d9f99d" stroke="#57534e" stroke-width="0.25"/><path d="M220.00 171.00L230.00 171.00L230.00 146.00L220.00 146.00Z" fill="#d9f99d" stroke="#57534e" stroke-width="0.25"/><path d="M210.00 171.00L220.00 171.00L220.00 146.00L210.00 146.00Z" fill="#d9f99d" stroke="#57534e" stroke-width="0.25"/><path d="M200.00 171.00L210.00 171.00L210.00 146.00L200.00 146.00Z" fill="#d9f99d" stroke="#57534e" stroke-width="0.25"/><path d="M190.00 171.00L200.00 171.00L200.00 146.00L190.00 146.00Z" fill="#d9f99d" stroke="#57534e" stroke-width="0.25"/><path d="M180.00 171.00L190.00 171.00L190.00 146.00L180.00 146.00Z" fill="#d9f99d" stroke="#57534e" stroke-width="0.25"/><path d="M170.00 171.00L180.00 171.00L180.00 146.00L170.00 146.00Z" fill="#d9f99d" stroke="#57534e" stroke-width="0.25"/><path d="M160.00 171.00L170.00 171.00L170.00 146.00L160.00 146.00Z" fill="#d9f99d" stroke="#57534e" stroke-width="0.25"/><path d="M150.00 171.00L160.00 171.00L160.00 146.00L150.00 146.00Z" fill="#d9f99d" stroke="#57534e" stroke-width="0.25"/><path d="M140.00 171.00L150.00 171.00L150.00 146.00L140.00 146.00Z" fill="#d9f99d" stroke="#57534e" stroke-width="0.25"/><path d="M130.00 171.00L140.00 171.00L140.00 146.00L130.00 146.00Z" fill="#d9f99d" stroke="#57534e" stroke-width="0.25"/><text x="200.0" y="171.0" text-anchor="middle" font-size="12" font-weight="bold" fill="#44403c">M-20</text><path d="M284.00 196.00L424.00 196.00L424.00 146.00L284.00 146.00Z" fill="#ffffff" stroke="#78716c" stroke-width="0.8"/><path d="M284.00 196.00L294.00 196.00L294.00 171.00L284.00 171.00Z" fill="#d9f99d" stroke="#57534e" stroke-width="0.25"/><path d="M294.00 196.00L304.00 196.00L304.00 171.00L294.00 171.00Z" fill="#d9f99d" stroke="#57534e" stroke-width="0.25"/><path d="M304.00 196.00L314.00 196.00L314.00 171.00L304.00 171.00Z" fill="#d9f99d" stroke="#57534e" stroke-width="0.25"/><path d="M314.00 196.00L324.00 196.00L324.00 171.00L314.00 171.00Z" fill="#d9f99d" stroke="#57534e" stroke-width="0.25"/><path d="M324.00 196.00L334.00 196.00L334.00 171.00L324.00 171.00Z" fill="#d9f99d" stroke="#57534e" stroke-width="0.25"/><path d="M334.00 196.00L344.00 196.00L344.00 171.00L334.00 171.00Z" fill="#d9f99d" stroke="#57534e" stroke-width="0.25"/><path d="M344.00 196.00L354.00 196.00L354.00 171.00L344.00 171.00Z" fill="#d9f99d" stroke="#57534e" stroke-width="0.25"/><path d="M354.00 196.00L364.00 196.00L364.00 171.00L354.00 171.00Z" fill="#d9f99d" stroke="#57534e" stroke-width="0.25"/><path d="M364.00 196.00L374.00 196.00L374.00 171.00L364.00 171.00Z" fill="#d9f99d" stroke="#57534e" stroke-width="0.25"/><path d="M374.00 196.00L384.00 196.00L384.00 171.00L374.00 171.00Z" fill="#d9f99d" stroke="#57534e" stroke-width="0.25"/><path d="M384.00 196.00L394.00 196.00L394.00 171.00L384.00 171.00Z" fill="#d9f99d" stroke="#57534e" stroke-width="0.25"/><path d="M394.00 196.00L404.00 196.00L404.00 171.00L394.00 171.00Z" fill="#d9f99d" stroke="#57534e" stroke-width="0.25"/><path d="M404.00 196.00L414.00 196.00L414.00 171.00L404.00 171.00Z" fill="#d9f99d" stroke="#57534e" stroke-width="0.25"/><path d="M414.00 196.00L424.00 196.00L424.00 171.00L414.00 171.00Z" fill="#d9f99d" stroke="#57534e" stroke-width="0.25"/><path d="M414.00 171.00L424.00 171.00L424.00 146.00L414.00 146.00Z" fill="#d9f99d" stroke="#57534e" stroke-width="0.25"/><path d="M404.00 171.00L414.00 171.00L414.00 146.00L404.00 146.00Z" fill="#d9f99d" stroke="#57534e" stroke-width="0.25"/><path d="M394.00 171.00L404.00 171.00L404.00 146.00L394.00 146.00Z" fill="#d9f99d" stroke="#57534e" stroke-width="0.25"/><path d="M384.00 171.00L394.00 171.00L394.00 146.00L384.00 146.00Z" fill="#d9f99d" stroke="#57534e" stroke-width="0.25"/><path d="M374.00 171.00L384.00 171.00L384.00 146.00L374.00 146.00Z" fill="#d9f99d" stroke="#57534e" stroke-width="0.25"/><path d="M364.00 171.00L374.00 171.00L374.00 146.00L364.00 146.00Z" fill="#d9f99d" stroke="#57534e" stroke-width="0.25"/><path d="M354.00 171.00L364.00 171.00L364.00 146.00L354.00 146.00Z" fill="#d9f99d" stroke="#57534e" stroke-width="0.25"/><path d="M344.00 171.00L354.00 171.00L354.00 146.00L344.00 146.00Z" fill="#d9f99d" stroke="#57534e" stroke-width="0.25"/><path d="M334.00 171.00L344.00 171.00L344.00 146.00L334.00 146.00Z" fill="#d9f99d" stroke="#57534e" stroke-width="0.25"/><path d="M324.00 171.00L334.00 171.00L334.00 146.00L324.00 146.00Z" fill="#d9f99d" stroke="#57534e" stroke-width="0.25"/><path d="M314.00 171.00L324.00 171.00L324.00 146.00L314.00 146.00Z" fill="#d9f99d" stroke="#57534e" stroke-width="0.25"/><path d="M304.00 171.00L314.00 171.00L314.00 146.00L304.00 146.00Z" fill="#d9f99d" stroke="#57534e" stroke-width="0.25"/><path d="M294.00 171.00L304.00 171.00L304.00 146.00L294.00 146.00Z" fill="#d9f99d" stroke="#57534e" stroke-width="0.25"/><path d="M284.00 171.00L294.00 171.00L294.00 146.00L284.00 146.00Z" fill="#d9f99d" stroke="#57534e" stroke-width="0.25"/><text x="354.0" y="171.0" text-anchor="middle" font-size="12" font-weight="bold" fill="#44403c">M-19</text><path d="M437.00 196.00L587.00 196.00L587.00 146.00L437.00 146.00Z" fill="#ffffff" stroke="#78716c" stroke-width="0.8"/><path d="M437.00 196.00L447.00 196.00L447.00 171.00L437.00 171.00Z" fill="#d9f99d" stroke="#57534e" stroke-width="0.25"/><path d="M447.00 196.00L457.00 196.00L457.00 171.00L447.00 171.00Z" fill="#d9f99d" stroke="#57534e" stroke-width="0.25"/><path d="M457.00 196.00L467.00 196.00L467.00 171.00L457.00 171.00Z" fill="#d9f99d" stroke="#57534e" stroke-width="0.25"/><path d="M467.00 196.00L477.00 196.00L477.00 171.00L467.00 171.00Z" fill="#d9f99d" stroke="#57534e" stroke-width="0.25"/><path d="M477.00 196.00L487.00 196.00L487.00 171.00L477.00 171.00Z" fill="#d9f99d" stroke="#57534e" stroke-width="0.25"/><path d="M487.00 196.00L497.00 196.00L497.00 171.00L487.00 171.00Z" fill="#d9f99d" stroke="#57534e" stroke-width="0.25"/><path d="M497.00 196.00L507.00 196.00L507.00 171.00L497.00 171.00Z" fill="#d9f99d" stroke="#57534e" stroke-width="0.25"/><path d="M507.00 196.00L517.00 196.00L517.00 171.00L507.00 171.00Z" fill="#d9f99d" stroke="#57534e" stroke-width="0.25"/><path d="M517.00 196.00L527.00 196.00L527.00 171.00L517.00 171.00Z" fill="#d9f99d" stroke="#57534e" stroke-width="0.25"/><path d="M527.00 196.00L537.00 196.00L537.00 171.00L527.00 171.00Z" fill="#d9f99d" stroke="#57534e" stroke-width="0.25"/><path d="M537.00 196.00L547.00 196.00L547.00 171.00L537.00 171.00Z" fill="#d9f99d" stroke="#57534e" stroke-width="0.25"/><path d="M547.00 196.00L557.00 196.00L557.00 171.00L547.00 171.00Z" fill="#d9f99d" stroke="#57534e" stroke-width="0.25"/><path d="M557.00 196.00L567.00 196.00L567.00 171.00L557.00 171.00Z" fill="#d9f99d" stroke="#57534e" stroke-width="0.25"/><path d="M567.00 196.00L577.00 196.00L577.00 171.00L567.00 171.00Z" fill="#d9f99d" stroke="#57534e" stroke-width="0.25"/><path d="M577.00 196.00L587.00 196.00L587.00 171.00L577.00 171.00Z" fill="#d9f99d" stroke="#57534e" stroke-width="0.25"/><path d="M577.00 171.00L587.00 171.00L587.00 146.00L577.00 146.00Z" fill="#d9f99d" stroke="#57534e" stroke-width="0.25"/><path d="M567.00 171.00L577.00 171.00L577.00 146.00L567.00 146.00Z" fill="#d9f99d" stroke="#57534e" stroke-width="0.25"/><path d="M557.00 171.00L567.00 171.00L567.00 146.00L557.00 146.00Z" fill="#d9f99d" stroke="#57534e" stroke-width="0.25"/><path d="M547.00 171.00L557.00 171.00L557.00 146.00L547.00 146.00Z" fill="#d9f99d" stroke="#57534e" stroke-width="0.25"/><path d="M537.00 171.00L547.00 171.00L547.00 146.00L537.00 146.00Z" fill="#d9f99d" stroke="#57534e" stroke-width="0.25"/><path d="M527.00 171.00L537.00 171.00L537.00 146.00L527.00 146.00Z" fill="#d9f99d" stroke="#57534e" stroke-width="0.25"/><path d="M517.00 171.00L527.00 171.00L527.00 146.00L517.00 146.00Z" fill="#d9f99d" stroke="#57534e" stroke-width="0.25"/><path d="M507.00 171.00L517.00 171.00L517.00 146.00L507.00 146.00Z" fill="#d9f99d" stroke="#57534e" stroke-width="0.25"/><path d="M497.00 171.00L507.00 171.00L507.00 146.00L497.00 146.00Z" fill="#d9f99d" stroke="#57534e" stroke-width="0.25"/><path d="M487.00 171.00L497.00 171.00L497.00 146.00L487.00 146.00Z" fill="#d9f99d" stroke="#57534e" stroke-width="0.25"/><path d="M477.00 171.00L487.00 171.00L487.00 146.00L477.00 146.00Z" fill="#d9f99d" stroke="#57534e" stroke-width="0.25"/><path d="M467.00 171.00L477.00 171.00L477.00 146.00L467.00 146.00Z" fill="#d9f99d" stroke="#57534e" stroke-width="0.25"/><path d="M457.00 171.00L467.00 171.00L467.00 146.00L457.00 146.00Z" fill="#d9f99d" stroke="#57534e" stroke-width="0.25"/><path d="M447.00 171.00L457.00 171.00L457.00 146.00L447.00 146.00Z" fill="#d9f99d" stroke="#57534e" stroke-width="0.25"/><path d="M437.00 171.00L447.00 171.00L447.00 146.00L437.00 146.00Z" fill="#d9f99d" stroke="#57534e" stroke-width="0.25"/><text x="512.0" y="171.0" text-anchor="middle" font-size="12" font-weight="bold" fill="#44403c">M-18</text><path d="M600.00 196.00L750.00 196.00L750.00 146.00L600.00 146.00Z" fill="#ffffff" stroke="#78716c" stroke-width="0.8"/><path d="M600.00 196.00L610.00 196.00L610.00 171.00L600.00 171.00Z" fill="#d9f99d" stroke="#57534e" stroke-width="0.25"/><path d="M610.00 196.00L620.00 196.00L620.00 171.00L610.00 171.00Z" fill="#d9f99d" stroke="#57534e" stroke-width="0.25"/><path d="M620.00 196.00L630.00 196.00L630.00 171.00L620.00 171.00Z" fill="#d9f99d" stroke="#57534e" stroke-width="0.25"/><path d="M630.00 196.00L640.00 196.00L640.00 171.00L630.00 171.00Z" fill="#d9f99d" stroke="#57534e" stroke-width="0.25"/><path d="M640.00 196.00L650.00 196.00L650.00 171.00L640.00 171.00Z" fill="#d9f99d" stroke="#57534e" stroke-width="0.25"/><path d="M650.00 196.00L660.00 196.00L660.00 171.00L650.00 171.00Z" fill="#d9f99d" stroke="#57534e" stroke-width="0.25"/><path d="M660.00 196.00L670.00 196.00L670.00 171.00L660.00 171.00Z" fill="#d9f99d" stroke="#57534e" stroke-width="0.25"/><path d="M670.00 196.00L680.00 196.00L680.00 171.00L670.00 171.00Z" fill="#d9f99d" stroke="#57534e" stroke-width="0.25"/><path d="M680.00 196.00L690.00 196.00L690.00 171.00L680.00 171.00Z" fill="#d9f99d" stroke="#57534e" stroke-width="0.25"/><path d="M690.00 196.00L700.00 196.00L700.00 171.00L690.00 171.00Z" fill="#d9f99d" stroke="#57534e" stroke-width="0.25"/><path d="M700.00 196.00L710.00 196.00L710.00 171.00L700.00 171.00Z" fill="#d9f99d" stroke="#57534e" stroke-width="0.25"/><path d="M710.00 196.00L720.00 196.00L720.00 171.00L710.00 171.00Z" fill="#d9f99d" stroke="#57534e" stroke-width="0.25"/><path d="M720.00 196.00L730.00 196.00L730.00 171.00L720.00 171.00Z" fill="#d9f99d" stroke="#57534e" stroke-width="0.25"/><path d="M730.00 196.00L740.00 196.00L740.00 171.00L730.00 171.00Z" fill="#d9f99d" stroke="#57534e" stroke-width="0.25"/><path d="M740.00 196.00L750.00 196.00L750.00 171.00L740.00 171.00Z" fill="#d9f99d" stroke="#57534e" stroke-width="0.25"/><path d="M740.00 171.00L750.00 171.00L750.00 146.00L740.00 146.00Z" fill="#d9f99d" stroke="#57534e" stroke-width="0.25"/><path d="M730.00 171.00L740.00 171.00L740.00 146.00L730.00 146.00Z" fill="#d9f99d" stroke="#57534e" stroke-width="0.25"/><path d="M720.00 171.00L730.00 171.00L730.00 146.00L720.00 146.00Z" fill="#d9f99d" stroke="#57534e" stroke-width="0.25"/><path d="M710.00 171.00L720.00 171.00L720.00 146.00L710.00 146.00Z" fill="#d9f99d" stroke="#57534e" stroke-width="0.25"/><path d="M700.00 171.00L710.00 171.00L710.00 146.00L700.00 146.00Z" fill="#d9f99d" stroke="#57534e" stroke-width="0.25"/><path d="M690.00 171.00L700.00 171.00L700.00 146.00L690.00 146.00Z" fill="#d9f99d" stroke="#57534e" stroke-width="0.25"/><path d="M680.00 171.00L690.00 171.00L690.00 146.00L680.00 146.00Z" fill="#d9f99d" stroke="#57534e" stroke-width="0.25"/><path d="M670.00 171.00L680.00 171.00L680.00 146.00L670.00 146.00Z" fill="#d9f99d" stroke="#57534e" stroke-width="0.25"/><path d="M660.00 171.00L670.00 171.00L670.00 146.00L660.00 146.00Z" fill="#d9f99d" stroke="#57534e" stroke-width="0.25"/><path d="M650.00 171.00L660.00 171.00L660.00 146.00L650.00 146.00Z" fill="#d9f99d" stroke="#57534e" stroke-width="0.25"/><path d="M640.00 171.00L650.00 171.00L650.00 146.00L640.00 146.00Z" fill="#d9f99d" stroke="#57534e" stroke-width="0.25"/><path d="M630.00 171.00L640.00 171.00L640.00 146.00L630.00 146.00Z" fill="#d9f99d" stroke="#57534e" stroke-width="0.25"/><path d="M620.00 171.00L630.00 171.00L630.00 146.00L620.00 146.00Z" fill="#d9f99d" stroke="#57534e" stroke-width="0.25"/><path d="M610.00 171.00L620.00 171.00L620.00 146.00L610.00 146.00Z" fill="#d9f99d" stroke="#57534e" stroke-width="0.25"/><path d="M600.00 171.00L610.00 171.00L610.00 146.00L600.00 146.00Z" fill="#d9f99d" stroke="#57534e" stroke-width="0.25"/><text x="675.0" y="171.0" text-anchor="middle" font-size="12" font-weight="bold" fill="#44403c">M-17</text><path d="M437.00 133.00L587.00 133.00L587.00 83.00L437.00 83.00Z" fill="#86efac" stroke="#78716c" stroke-width="0.8"/><text x="512.0" y="108.0" text-anchor="middle" font-size="12" font-weight="bold" fill="#44403c">M-16</text><path d="M600.00 133.00L750.00 133.00L750.00 83.00L600.00 83.00Z" fill="#ffffff" stroke="#78716c" stroke-width="0.8"/><path d="M600.00 133.00L610.00 133.00L610.00 108.00L600.00 108.00Z" fill="#d9f99d" stroke="#57534e" stroke-width="0.25"/><path d="M610.00 133.00L620.00 133.00L620.00 108.00L610.00 108.00Z" fill="#d9f99d" stroke="#57534e" stroke-width="0.25"/><path d="M620.00 133.00L630.00 133.00L630.00 108.00L620.00 108.00Z" fill="#d9f99d" stroke="#57534e" stroke-width="0.25"/><path d="M630.00 133.00L640.00 133.00L640.00 108.00L630.00 108.00Z" fill="#d9f99d" stroke="#57534e" stroke-width="0.25"/><path d="M640.00 133.00L650.00 133.00L650.00 108.00L640.00 108.00Z" fill="#d9f99d" stroke="#57534e" stroke-width="0.25"/><path d="M650.00 133.00L660.00 133.00L660.00 108.00L650.00 108.00Z" fill="#d9f99d" stroke="#57534e" stroke-width="0.25"/><path d="M660.00 133.00L670.00 133.00L670.00 108.00L660.00 108.00Z" fill="#d9f99d" stroke="#57534e" stroke-width="0.25"/><path d="M670.00 133.00L680.00 133.00L680.00 108.00L670.00 108.00Z" fill="#d9f99d" stroke="#57534e" stroke-width="0.25"/><path d="M680.00 133.00L690.00 133.00L690.00 108.00L680.00 108.00Z" fill="#d9f99d" stroke="#57534e" stroke-width="0.25"/><path d="M690.00 133.00L700.00 133.00L700.00 108.00L690.00 108.00Z" fill="#d9f99d" stroke="#57534e" stroke-width="0.25"/><path d="M700.00 133.00L710.00 133.00L710.00 108.00L700.00 108.00Z" fill="#d9f99d" stroke="#57534e" stroke-width="0.25"/><path d="M710.00 133.00L720.00 133.00L720.00 108.00L710.00 108.00Z" fill="#d9f99d" stroke="#57534e" stroke-width="0.25"/><path d="M720.00 133.00L730.00 133.00L730.00 108.00L720.00 108.00Z" fill="#d9f99d" stroke="#57534e" stroke-width="0.25"/><path d="M730.00 133.00L740.00 133.00L740.00 108.00L730.00 108.00Z" fill="#d9f99d" stroke="#57534e" stroke-width="0.25"/><path d="M740.00 133.00L750.00 133.00L750.00 108.00L740.00 108.00Z" fill="#d9f99d" stroke="#57534e" stroke-width="0.25"/><path d="M740.00 108.00L750.00 108.00L750.00 83.00L740.00 83.00Z" fill="#d9f99d" stroke="#57534e" stroke-width="0.25"/><path d="M730.00 108.00L740.00 108.00L740.00 83.00L730.00 83.00Z" fill="#d9f99d" stroke="#57534e" stroke-width="0.25"/><path d="M720.00 108.00L730.00 108.00L730.00 83.00L720.00 83.00Z" fill="#d9f99d" stroke="#57534e" stroke-width="0.25"/><path d="M710.00 108.00L720.00 108.00L720.00 83.00L710.00 83.00Z" fill="#d9f99d" stroke="#57534e" stroke-width="0.25"/><path d="M700.00 108.00L710.00 108.00L710.00 83.00L700.00 83.00Z" fill="#d9f99d" stroke="#57534e" stroke-width="0.25"/><path d="M690.00 108.00L700.00 108.00L700.00 83.00L690.00 83.00Z" fill="#d9f99d" stroke="#57534e" stroke-width="0.25"/><path d="M680.00 108.00L690.00 108.00L690.00 83.00L680.00 83.00Z" fill="#d9f99d" stroke="#57534e" stroke-width="0.25"/><path d="M670.00 108.00L680.00 108.00L680.00 83.00L670.00 83.00Z" fill="#d9f99d" stroke="#57534e" stroke-width="0.25"/><path d="M660.00 108.00L670.00 108.00L670.00 83.00L660.00 83.00Z" fill="#d9f99d" stroke="#57534e" stroke-width="0.25"/><path d="M650.00 108.00L660.00 108.00L660.00 83.00L650.00 83.00Z" fill="#d9f99d" stroke="#57534e" stroke-width="0.25"/><path d="M640.00 108.00L650.00 108.00L650.00 83.00L640.00 83.00Z" fill="#d9f99d" stroke="#57534e" stroke-width="0.25"/><path d="M630.00 108.00L640.00 108.00L640.00 83.00L630.00 83.00Z" fill="#d9f99d" stroke="#57534e" stroke-width="0.25"/><path d="M620.00 108.00L630.00 108.00L630.00 83.00L620.00 83.00Z" fill="#d9f99d" stroke="#57534e" stroke-width="0.25"/><path d="M610.00 108.00L620.00 108.00L620.00 83.00L610.00 83.00Z" fill="#d9f99d" stroke="#57534e" stroke-width="0.25"/><path d="M600.00 108.00L610.00 108.00L610.00 83.00L600.00 83.00Z" fill="#d9f99d" stroke="#57534e" stroke-width="0.25"/><text x="675.0" y="108.0" text-anchor="middle" font-size="12" font-weight="bold" fill="#44403c">M-15</text><path d="M793.00 196.00L883.00 196.00L883.00 146.00L793.00 146.00Z" fill="#ffffff" stroke="#78716c" stroke-width="0.8"/><path d="M793.00 196.00L803.00 196.00L803.00 171.00L793.00 171.00Z" fill="#d9f99d" stroke="#57534e" stroke-width="0.25"/><path d="M803.00 196.00L813.00 196.00L813.00 171.00L803.00 171.00Z" fill="#d9f99d" stroke="#57534e" stroke-width="0.25"/><path d="M813.00 196.00L823.00 196.00L823.00 171.00L813.00 171.00Z" fill="#d9f99d" stroke="#57534e" stroke-width="0.25"/><path d="M823.00 196.00L833.00 196.00L833.00 171.00L823.00 171.00Z" fill="#d9f99d" stroke="#57534e" stroke-width="0.25"/><path d="M833.00 196.00L843.00 196.00L843.00 171.00L833.00 171.00Z" fill="#d9f99d" stroke="#57534e" stroke-width="0.25"/><path d="M843.00 196.00L853.00 196.00L853.00 171.00L843.00 171.00Z" fill="#d9f99d" stroke="#57534e" stroke-width="0.25"/><path d="M853.00 196.00L863.00 196.00L863.00 171.00L853.00 171.00Z" fill="#d9f99d" stroke="#57534e" stroke-width="0.25"/><path d="M863.00 196.00L873.00 196.00L873.00 171.00L863.00 171.00Z" fill="#d9f99d" stroke="#57534e" stroke-width="0.25"/><path d="M873.00 196.00L883.00 196.00L883.00 171.00L873.00 171.00Z" fill="#d9f99d" stroke="#57534e" stroke-width="0.25"/><path d="M873.00 171.00L883.00 171.00L883.00 146.00L873.00 146.00Z" fill="#d9f99d" stroke="#57534e" stroke-width="0.25"/><path d="M863.00 171.00L873.00 171.00L873.00 146.00L863.00 146.00Z" fill="#d9f99d" stroke="#57534e" stroke-width="0.25"/><path d="M853.00 171.00L863.00 171.00L863.00 146.00L853.00 146.00Z" fill="#d9f99d" stroke="#57534e" stroke-width="0.25"/><path d="M843.00 171.00L853.00 171.00L853.00 146.00L843.00 146.00Z" fill="#d9f99d" stroke="#57534e" stroke-width="0.25"/><path d="M833.00 171.00L843.00 171.00L843.00 146.00L833.00 146.00Z" fill="#d9f99d" stroke="#57534e" stroke-width="0.25"/><path d="M823.00 171.00L833.00 171.00L833.00 146.00L823.00 146.00Z" fill="#d9f99d" stroke="#57534e" stroke-width="0.25"/><path d="M813.00 171.00L823.00 171.00L823.00 146.00L813.00 146.00Z" fill="#d9f99d" stroke="#57534e" stroke-width="0.25"/><path d="M803.00 171.00L813.00 171.00L813.00 146.00L803.00 146.00Z" fill="#d9f99d" stroke="#57534e" stroke-width="0.25"/><path d="M793.00 171.00L803.00 171.00L803.00 146.00L793.00 146.00Z" fill="#d9f99d" stroke="#57534e" stroke-width="0.25"/><text x="838.0" y="171.0" text-anchor="middle" font-size="12" font-weight="bold" fill="#44403c">M-7</text><path d="M793.00 133.00L883.00 133.00L883.00 83.00L793.00 83.00Z" fill="#ffffff" stroke="#78716c" stroke-width="0.8"/><path d="M793.00 133.00L803.00 133.00L803.00 108.00L793.00 108.00Z" fill="#d9f99d" stroke="#57534e" stroke-width="0.25"/><path d="M803.00 133.00L813.00 133.00L813.00 108.00L803.00 108.00Z" fill="#d9f99d" stroke="#57534e" stroke-width="0.25"/><path d="M813.00 133.00L823.00 133.00L823.00 108.00L813.00 108.00Z" fill="#d9f99d" stroke="#57534e" stroke-width="0.25"/><path d="M823.00 133.00L833.00 133.00L833.00 108.00L823.00 108.00Z" fill="#d9f99d" stroke="#57534e" stroke-width="0.25"/><path d="M833.00 133.00L843.00 133.00L843.00 108.00L833.00 108.00Z" fill="#d9f99d" stroke="#57534e" stroke-width="0.25"/><path d="M843.00 133.00L853.00 133.00L853.00 108.00L843.00 108.00Z" fill="#d9f99d" stroke="#57534e" stroke-width="0.25"/><path d="M853.00 133.00L863.00 133.00L863.00 108.00L853.00 108.00Z" fill="#d9f99d" stroke="#57534e" stroke-width="0.25"/><path d="M863.00 133.00L873.00 133.00L873.00 108.00L863.00 108.00Z" fill="#d9f99d" stroke="#57534e" stroke-width="0.25"/><path d="M873.00 133.00L883.00 133.00L883.00 108.00L873.00 108.00Z" fill="#d9f99d" stroke="#57534e" stroke-width="0.25"/><path d="M873.00 108.00L883.00 108.00L883.00 83.00L873.00 83.00Z" fill="#d9f99d" stroke="#57534e" stroke-width="0.25"/><path d="M863.00 108.00L873.00 108.00L873.00 83.00L863.00 83.00Z" fill="#d9f99d" stroke="#57534e" stroke-width="0.25"/><path d="M853.00 108.00L863.00 108.00L863.00 83.00L853.00 83.00Z" fill="#d9f99d" stroke="#57534e" stroke-width="0.25"/><path d="M843.00 108.00L853.00 108.00L853.00 83.00L843.00 83.00Z" fill="#d9f99d" stroke="#57534e" stroke-width="0.25"/><path d="M833.00 108.00L843.00 108.00L843.00 83.00L833.00 83.00Z" fill="#d9f99d" stroke="#57534e" stroke-width="0.25"/><path d="M823.00 108.00L833.00 108.00L833.00 83.00L823.00 83.00Z" fill="#d9f99d" stroke="#57534e" stroke-width="0.25"/><path d="M813.00 108.00L823.00 108.00L823.00 83.00L813.00 83.00Z" fill="#d9f99d" stroke="#57534e" stroke-width="0.25"/><path d="M803.00 108.00L813.00 108.00L813.00 83.00L803.00 83.00Z" fill="#d9f99d" stroke="#57534e" stroke-width="0.25"/><path d="M793.00 108.00L803.00 108.00L803.00 83.00L793.00 83.00Z" fill="#d9f99d" stroke="#57534e" stroke-width="0.25"/><text x="838.0" y="108.0" text-anchor="middle" font-size="12" font-weight="bold" fill="#44403c">M-6</text><path d="M896.00 133.00L986.00 133.00L986.00 83.00L896.00 83.00Z" fill="#ffffff" stroke="#78716c" stroke-width="0.8"/><path d="M896.00 133.00L906.00 133.00L906.00 108.00L896.00 108.00Z" fill="#d9f99d" stroke="#57534e" stroke-width="0.25"/><path d="M906.00 133.00L916.00 133.00L916.00 108.00L906.00 108.00Z" fill="#d9f99d" stroke="#57534e" stroke-width="0.25"/><path d="M916.00 133.00L926.00 133.00L926.00 108.00L916.00 108.00Z" fill="#d9f99d" stroke="#57534e" stroke-width="0.25"/><path d="M926.00 133.00L936.00 133.00L936.00 108.00L926.00 108.00Z" fill="#d9f99d" stroke="#57534e" stroke-width="0.25"/><path d="M936.00 133.00L946.00 133.00L946.00 108.00L936.00 108.00Z" fill="#d9f99d" stroke="#57534e" stroke-width="0.25"/><path d="M946.00 133.00L956.00 133.00L956.00 108.00L946.00 108.00Z" fill="#d9f99d" stroke="#57534e" stroke-width="0.25"/><path d="M956.00 133.00L966.00 133.00L966.00 108.00L956.00 108.00Z" fill="#d9f99d" stroke="#57534e" stroke-width="0.25"/><path d="M966.00 133.00L976.00 133.00L976.00 108.00L966.00 108.00Z" fill="#d9f99d" stroke="#57534e" stroke-width="0.25"/><path d="M976.00 133.00L986.00 133.00L986.00 108.00L976.00 108.00Z" fill="#d9f99d" stroke="#57534e" stroke-width="0.25"/><path d="M976.00 108.00L986.00 108.00L986.00 83.00L976.00 83.00Z" fill="#d9f99d" stroke="#57534e" stroke-width="0.25"/><path d="M966.00 108.00L976.00 108.00L976.00 83.00L966.00 83.00Z" fill="#d9f99d" stroke="#57534e" stroke-width="0.25"/><path d="M956.00 108.00L966.00 108.00L966.00 83.00L956.00 83.00Z" fill="#d9f99d" stroke="#57534e" stroke-width="0.25"/><path d="M946.00 108.00L956.00 108.00L956.00 83.00L946.00 83.00Z" fill="#d9f99d" stroke="#57534e" stroke-width="0.25"/><path d="M936.00 108.00L946.00 108.00L946.00 83.00L936.00 83.00Z" fill="#d9f99d" stroke="#57534e" stroke-width="0.25"/><path d="M926.00 108.00L936.00 108.00L936.00 83.00L926.00 83.00Z" fill="#d9f99d" stroke="#57534e" stroke-width="0.25"/><path d="M916.00 108.00L926.00 108.00L926.00 83.00L916.00 83.00Z" fill="#d9f99d" stroke="#57534e" stroke-width="0.25"/><path d="M906.00 108.00L916.00 108.00L916.00 83.00L906.00 83.00Z" fill="#d9f99d" stroke="#57534e" stroke-width="0.25"/><path d="M896.00 108.00L906.00 108.00L906.00 83.00L896.00 83.00Z" fill="#d9f99d" stroke="#57534e" stroke-width="0.25"/><text x="941.0" y="108.0" text-anchor="middle" font-size="12" font-weight="bold" fill="#44403c">M-5</text><path d="M1070.00 196.00L1170.00 196.00L1170.00 146.00L1070.00 146.00Z" fill="#86efac" stroke="#78716c" stroke-width="0.8"/><text x="1120.0" y="171.0" text-anchor="middle" font-size="12" font-weight="bold" fill="#44403c">AV-E1</text><path d="M1183.00 196.00L1333.00 196.00L1333.00 146.00L1183.00 146.00Z" fill="#ffffff" stroke="#78716c" stroke-width="0.8"/><path d="M1183.00 196.00L1193.00 196.00L1193.00 171.00L1183.00 171.00Z" fill="#d9f99d" stroke="#57534e" stroke-width="0.25"/><path d="M1193.00 196.00L1203.00 196.00L1203.00 171.00L1193.00 171.00Z" fill="#d9f99d" stroke="#57534e" stroke-width="0.25"/><path d="M1203.00 196.00L1213.00 196.00L1213.00 171.00L1203.00 171.00Z" fill="#d9f99d" stroke="#57534e" stroke-width="0.25"/><path d="M1213.00 196.00L1223.00 196.00L1223.00 171.00L1213.00 171.00Z" fill="#d9f99d" stroke="#57534e" stroke-width="0.25"/><path d="M1223.00 196.00L1233.00 196.00L1233.00 171.00L1223.00 171.00Z" fill="#d9f99d" stroke="#57534e" stroke-width="0.25"/><path d="M1233.00 196.00L1243.00 196.00L1243.00 171.00L1233.00 171.00Z" fill="#d9f99d" stroke="#57534e" stroke-width="0.25"/><path d="M1243.00 196.00L1253.00 196.00L1253.00 171.00L1243.00 171.00Z" fill="#d9f99d" stroke="#57534e" stroke-width="0.25"/><path d="M1253.00 196.00L1263.00 196.00L1263.00 171.00L1253.00 171.00Z" fill="#d9f99d" stroke="#57534e" stroke-width="0.25"/><path d="M1263.00 196.00L1273.00 196.00L1273.00 171.00L1263.00 171.00Z" fill="#d9f99d" stroke="#57534e" stroke-width="0.25"/><path d="M1273.00 196.00L1283.00 196.00L1283.00 171.00L1273.00 171.00Z" fill="#d9f99d" stroke="#57534e" stroke-width="0.25"/><path d="M1283.00 196.00L1293.00 196.00L1293.00 171.00L1283.00 171.00Z" fill="#d9f99d" stroke="#57534e" stroke-width="0.25"/><path d="M1293.00 196.00L1303.00 196.00L1303.00 171.00L1293.00 171.00Z" fill="#d9f99d" stroke="#57534e" stroke-width="0.25"/><path d="M1303.00 196.00L1313.00 196.00L1313.00 171.00L1303.00 171.00Z" fill="#d9f99d" stroke="#57534e" stroke-width="0.25"/><path d="M1313.00 196.00L1323.00 196.00L1323.00 171.00L1313.00 171.00Z" fill="#d9f99d" stroke="#57534e" stroke-width="0.25"/><path d="M1323.00 196.00L1333.00 196.00L1333.00 171.00L1323.00 171.00Z" fill="#d9f99d" stroke="#57534e" stroke-width="0.25"/><path d="M1323.00 171.00L1333.00 171.00L1333.00 146.00L1323.00 146.00Z" fill="#d9f99d" stroke="#57534e" stroke-width="0.25"/><path d="M1313.00 171.00L1323.00 171.00L1323.00 146.00L1313.00 146.00Z" fill="#d9f99d" stroke="#57534e" stroke-width="0.25"/><path d="M1303.00 171.00L1313.00 171.00L1313.00 146.00L1303.00 146.00Z" fill="#d9f99d" stroke="#57534e" stroke-width="0.25"/><path d="M1293.00 171.00L1303.00 171.00L1303.00 146.00L1293.00 146.00Z" fill="#d9f99d" stroke="#57534e" stroke-width="0.25"/><path d="M1283.00 171.00L1293.00 171.00L1293.00 146.00L1283.00 146.00Z" fill="#d9f99d" stroke="#57534e" stroke-width="0.25"/><path d="M1273.00 171.00L1283.00 171.00L1283.00 146.00L1273.00 146.00Z" fill="#d9f99d" stroke="#57534e" stroke-width="0.25"/><path d="M1263.00 171.00L1273.00 171.00L1273.00 146.00L1263.00 146.00Z" fill="#d9f99d" stroke="#57534e" stroke-width="0.25"/><path d="M1253.00 171.00L1263.00 171.00L1263.00 146.00L1253.00 146.00Z" fill="#d9f99d" stroke="#57534e" stroke-width="0.25"/><path d="M1243.00 171.00L1253.00 171.00L1253.00 146.00L1243.00 146.00Z" fill="#d9f99d" stroke="#57534e" stroke-width="0.25"/><path d="M1233.00 171.00L1243.00 171.00L1243.00 146.00L1233.00 146.00Z" fill="#d9f99d" stroke="#57534e" stroke-width="0.25"/><path d="M1223.00 171.00L1233.00 171.00L1233.00 146.00L1223.00 146.00Z" fill="#d9f99d" stroke="#57534e" stroke-width="0.25"/><path d="M1213.00 171.00L1223.00 171.00L1223.00 146.00L1213.00 146.00Z" fill="#d9f99d" stroke="#57534e" stroke-width="0.25"/><path d="M1203.00 171.00L1213.00 171.00L1213.00 146.00L1203.00 146.00Z" fill="#d9f99d" stroke="#57534e" stroke-width="0.25"/><path d="M1193.00 171.00L1203.00 171.00L1203.00 146.00L1193.00 146.00Z" fill="#d9f99d" stroke="#57534e" stroke-width="0.25"/><path d="M1183.00 171.00L1193.00 171.00L1193.00 146.00L1183.00 146.00Z" fill="#d9f99d" stroke="#57534e" stroke-width="0.25"/><text x="1258.0" y="171.0" text-anchor="middle" font-size="12" font-weight="bold" fill="#44403c">M-4</text><path d="M1346.00 196.00L1426.00 196.00L1426.00 146.00L1346.00 146.00Z" fill="#ffffff" stroke="#78716c" stroke-width="0.8"/><path d="M1346.00 196.00L1356.00 196.00L1356.00 171.00L1346.00 171.00Z" fill="#d9f99d" stroke="#57534e" stroke-width="0.25"/><path d="M1356.00 196.00L1366.00 196.00L1366.00 171.00L1356.00 171.00Z" fill="#d9f99d" stroke="#57534e" stroke-width="0.25"/><path d="M1366.00 196.00L1376.00 196.00L1376.00 171.00L1366.00 171.00Z" fill="#d9f99d" stroke="#57534e" stroke-width="0.25"/><path d="M1376.00 196.00L1386.00 196.00L1386.00 171.00L1376.00 171.00Z" fill="#d9f99d" stroke="#57534e" stroke-width="0.25"/><path d="M1386.00 196.00L1396.00 196.00L1396.00 171.00L1386.00 171.00Z" fill="#d9f99d" stroke="#57534e" stroke-width="0.25"/><path d="M1396.00 196.00L1406.00 196.00L1406.00 171.00L1396.00 171.00Z" fill="#d9f99d" stroke="#57534e" stroke-width="0.25"/><path d="M1406.00 196.00L1416.00 196.00L1416.00 171.00L1406.00 171.00Z" fill="#d9f99d" stroke="#57534e" stroke-width="0.25"/><path d="M1416.00 196.00L1426.00 196.00L1426.00 171.00L1416.00 171.00Z" fill="#d9f99d" stroke="#57534e" stroke-width="0.25"/><path d="M1416.00 171.00L1426.00 171.00L1426.00 146.00L1416.00 146.00Z" fill="#d9f99d" stroke="#57534e" stroke-width="0.25"/><path d="M1406.00 171.00L1416.00 171.00L1416.00 146.00L1406.00 146.00Z" fill="#d9f99d" stroke="#57534e" stroke-width="0.25"/><path d="M1396.00 171.00L1406.00 171.00L1406.00 146.00L1396.00 146.00Z" fill="#d9f99d" stroke="#57534e" stroke-width="0.25"/><path d="M1386.00 171.00L1396.00 171.00L1396.00 146.00L1386.00 146.00Z" fill="#d9f99d" stroke="#57534e" stroke-width="0.25"/><path d="M1376.00 171.00L1386.00 171.00L1386.00 146.00L1376.00 146.00Z" fill="#d9f99d" stroke="#57534e" stroke-width="0.25"/><path d="M1366.00 171.00L1376.00 171.00L1376.00 146.00L1366.00 146.00Z" fill="#d9f99d" stroke="#57534e" stroke-width="0.25"/><path d="M1356.00 171.00L1366.00 171.00L1366.00 146.00L1356.00 146.00Z" fill="#d9f99d" stroke="#57534e" stroke-width="0.25"/><path d="M1346.00 171.00L1356.00 171.00L1356.00 146.00L1346.00 146.00Z" fill="#d9f99d" stroke="#57534e" stroke-width="0.25"/><text x="1386.0" y="171.0" text-anchor="middle" font-size="12" font-weight="bold" fill="#44403c">M-1</text><path d="M1070.00 259.00L1170.00 259.00L1170.00 209.00L1070.00 209.00Z" fill="#86efac" stroke="#78716c" stroke-width="0.8"/><text x="1120.0" y="234.0" text-anchor="middle" font-size="12" font-weight="bold" fill="#44403c">AV-E2</text><path d="M1183.00 259.00L1333.00 259.00L1333.00 209.00L1183.00 209.00Z" fill="#ffffff" stroke="#78716c" stroke-width="0.8"/><path d="M1183.00 259.00L1193.00 259.00L1193.00 234.00L1183.00 234.00Z" fill="#d9f99d" stroke="#57534e" stroke-width="0.25"/><path d="M1193.00 259.00L1203.00 259.00L1203.00 234.00L1193.00 234.00Z" fill="#d9f99d" stroke="#57534e" stroke-width="0.25"/><path d="M1203.00 259.00L1213.00 259.00L1213.00 234.00L1203.00 234.00Z" fill="#d9f99d" stroke="#57534e" stroke-width="0.25"/><path d="M1213.00 259.00L1223.00 259.00L1223.00 234.00L1213.00 234.00Z" fill="#d9f99d" stroke="#57534e" stroke-width="0.25"/><path d="M1223.00 259.00L1233.00 259.00L1233.00 234.00L1223.00 234.00Z" fill="#d9f99d" stroke="#57534e" stroke-width="0.25"/><path d="M1233.00 259.00L1243.00 259.00L1243.00 234.00L1233.00 234.00Z" fill="#d9f99d" stroke="#57534e" stroke-width="0.25"/><path d="M1243.00 259.00L1253.00 259.00L1253.00 234.00L1243.00 234.00Z" fill="#d9f99d" stroke="#57534e" stroke-width="0.25"/><path d="M1253.00 259.00L1263.00 259.00L1263.00 234.00L1253.00 234.00Z" fill="#d9f99d" stroke="#57534e" stroke-width="0.25"/><path d="M1263.00 259.00L1273.00 259.00L1273.00 234.00L1263.00 234.00Z" fill="#d9f99d" stroke="#57534e" stroke-width="0.25"/><path d="M1273.00 259.00L1283.00 259.00L1283.00 234.00L1273.00 234.00Z" fill="#d9f99d" stroke="#57534e" stroke-width="0.25"/><path d="M1283.00 259.00L1293.00 259.00L1293.00 234.00L1283.00 234.00Z" fill="#d9f99d" stroke="#57534e" stroke-width="0.25"/><path d="M1293.00 259.00L1303.00 259.00L1303.00 234.00L1293.00 234.00Z" fill="#d9f99d" stroke="#57534e" stroke-width="0.25"/><path d="M1303.00 259.00L1313.00 259.00L1313.00 234.00L1303.00 234.00Z" fill="#d9f99d" stroke="#57534e" stroke-width="0.25"/><path d="M1313.00 259.00L1323.00 259.00L1323.00 234.00L1313.00 234.00Z" fill="#d9f99d" stroke="#57534e" stroke-width="0.25"/><path d="M1323.00 259.00L1333.00 259.00L1333.00 234.00L1323.00 234.00Z" fill="#d9f99d" stroke="#57534e" stroke-width="0.25"/><path d="M1323.00 234.00L1333.00 234.00L1333.00 209.00L1323.00 209.00Z" fill="#d9f99d" stroke="#57534e" stroke-width="0.25"/><path d="M1313.00 234.00L1323.00 234.00L1323.00 209.00L1313.00 209.00Z" fill="#d9f99d" stroke="#57534e" stroke-width="0.25"/><path d="M1303.00 234.00L1313.00 234.00L1313.00 209.00L1303.00 209.00Z" fill="#d9f99d" stroke="#57534e" stroke-width="0.25"/><path d="M1293.00 234.00L1303.00 234.00L1303.00 209.00L1293.00 209.00Z" fill="#d9f99d" stroke="#57534e" stroke-width="0.25"/><path d="M1283.00 234.00L1293.00 234.00L1293.00 209.00L1283.00 209.00Z" fill="#d9f99d" stroke="#57534e" stroke-width="0.25"/><path d="M1273.00 234.00L1283.00 234.00L1283.00 209.00L1273.00 209.00Z" fill="#d9f99d" stroke="#57534e" stroke-width="0.25"/><path d="M1263.00 234.00L1273.00 234.00L1273.00 209.00L1263.00 209.00Z" fill="#d9f99d" stroke="#57534e" stroke-width="0.25"/><path d="M1253.00 234.00L1263.00 234.00L1263.00 209.00L1253.00 209.00Z" fill="#d9f99d" stroke="#57534e" stroke-width="0.25"/><path d="M1243.00 234.00L1253.00 234.00L1253.00 209.00L1243.00 209.00Z" fill="#d9f99d" stroke="#57534e" stroke-width="0.25"/><path d="M1233.00 234.00L1243.00 234.00L1243.00 209.00L1233.00 209.00Z" fill="#d9f99d" stroke="#57534e" stroke-width="0.25"/><path d="M1223.00 234.00L1233.00 234.00L1233.00 209.00L1223.00 209.00Z" fill="#d9f99d" stroke="#57534e" stroke-width="0.25"/><path d="M1213.00 234.00L1223.00 234.00L1223.00 209.00L1213.00 209.00Z" fill="#d9f99d" stroke="#57534e" stroke-width="0.25"/><path d="M1203.00 234.00L1213.00 234.00L1213.00 209.00L1203.00 209.00Z" fill="#d9f99d" stroke="#57534e" stroke-width="0.25"/><path d="M1193.00 234.00L1203.00 234.00L1203.00 209.00L1193.00 209.00Z" fill="#d9f99d" stroke="#57534e" stroke-width="0.25"/><path d="M1183.00 234.00L1193.00 234.00L1193.00 209.00L1183.00 209.00Z" fill="#d9f99d" stroke="#57534e" stroke-width="0.25"/><text x="1258.0" y="234.0" text-anchor="middle" font-size="12" font-weight="bold" fill="#44403c">M-3</text><path d="M1346.00 259.00L1426.00 259.00L1426.00 209.00L1346.00 209.00Z" fill="#ffffff" stroke="#78716c" stroke-width="0.8"/><path d="M1346.00 259.00L1356.00 259.00L1356.00 234.00L1346.00 234.00Z" fill="#d9f99d" stroke="#57534e" stroke-width="0.25"/><path d="M1356.00 259.00L1366.00 259.00L1366.00 234.00L1356.00 234.00Z" fill="#d9f99d" stroke="#57534e" stroke-width="0.25"/><path d="M1366.00 259.00L1376.00 259.00L1376.00 234.00L1366.00 234.00Z" fill="#d9f99d" stroke="#57534e" stroke-width="0.25"/><path d="M1376.00 259.00L1386.00 259.00L1386.00 234.00L1376.00 234.00Z" fill="#d9f99d" stroke="#57534e" stroke-width="0.25"/><path d="M1386.00 259.00L1396.00 259.00L1396.00 234.00L1386.00 234.00Z" fill="#d9f99d" stroke="#57534e" stroke-width="0.25"/><path d="M1396.00 259.00L1406.00 259.00L1406.00 234.00L1396.00 234.00Z" fill="#d9f99d" stroke="#57534e" stroke-width="0.25"/><path d="M1406.00 259.00L1416.00 259.00L1416.00 234.00L1406.00 234.00Z" fill="#d9f99d" stroke="#57534e" stroke-width="0.25"/><path d="M1416.00 259.00L1426.00 259.00L1426.00 234.00L1416.00 234.00Z" fill="#d9f99d" stroke="#57534e" stroke-width="0.25"/><path d="M1416.00 234.00L1426.00 234.00L1426.00 209.00L1416.00 209.00Z" fill="#d9f99d" stroke="#57534e" stroke-width="0.25"/><path d="M1406.00 234.00L1416.00 234.00L1416.00 209.00L1406.00 209.00Z" fill="#d9f99d" stroke="#57534e" stroke-width="0.25"/><path d="M1396.00 234.00L1406.00 234.00L1406.00 209.00L1396.00 209.00Z" fill="#d9f99d" stroke="#57534e" stroke-width="0.25"/><path d="M1386.00 234.00L1396.00 234.00L1396.00 209.00L1386.00 209.00Z" fill="#d9f99d" stroke="#57534e" stroke-width="0.25"/><path d="M1376.00 234.00L1386.00 234.00L1386.00 209.00L1376.00 209.00Z" fill="#d9f99d" stroke="#57534e" stroke-width="0.25"/><path d="M1366.00 234.00L1376.00 234.00L1376.00 209.00L1366.00 209.00Z" fill="#d9f99d" stroke="#57534e" stroke-width="0.25"/><path d="M1356.00 234.00L1366.00 234.00L1366.00 209.00L1356.00 209.00Z" fill="#d9f99d" stroke="#57534e" stroke-width="0.25"/><path d="M1346.00 234.00L1356.00 234.00L1356.00 209.00L1346.00 209.00Z" fill="#d9f99d" stroke="#57534e" stroke-width="0.25"/><text x="1386.0" y="234.0" text-anchor="middle" font-size="12" font-weight="bold" fill="#44403c">M-2</text><text x="765.0" y="270.5" text-anchor="middle" font-size="8" fill="#1c1917">Avenida S/N</text><text x="1040.0" y="270.5" text-anchor="middle" font-size="8" fill="#1c1917">Trillo</text><text x="780.0" y="498.0" text-anchor="middle" font-size="8" fill="#1c1917">Carretera Internacional Ruta 9 (Argentina–Paraguay)</text><text x="510.0" y="107.0" text-anchor="middle" font-size="8" fill="#1c1917">Mega Piscina</text><text x="1120.0" y="171.0" text-anchor="middle" font-size="8" fill="#1c1917">Club House</text></svg>